<?xml version="1.0" encoding="UTF-8"?>
<svg version="1.1" xmlns="http://www.w3.org/2000/svg" width="930" height="1126">
<path d="M0 0 C306.9 0 613.8 0 930 0 C930 371.58 930 743.16 930 1126 C623.1 1126 316.2 1126 0 1126 C0 754.42 0 382.84 0 0 Z " fill="#D26815" transform="translate(0,0)"/>
<path d="M0 0 C306.9 0 613.8 0 930 0 C930 371.58 930 743.16 930 1126 C623.1 1126 316.2 1126 0 1126 C0 754.42 0 382.84 0 0 Z M880.08203125 35.5703125 C879.0876001 36.12968506 878.09316895 36.68905762 877.06860352 37.26538086 C875.99408936 37.87905518 874.9195752 38.49272949 873.8125 39.125 C872.69480225 39.75736572 871.57710449 40.38973145 870.42553711 41.04125977 C860.93160381 46.42869812 851.49957202 51.92175537 842.08203125 57.44140625 C826.15571446 66.77272973 810.13030035 75.93331106 794.0958252 85.0770874 C786.03773079 89.67375438 778.00599909 94.313138 770 99 C761.40477328 104.0318069 752.7768787 109.00389072 744.125 113.9375 C735.02920013 119.12442426 725.94287737 124.32681506 716.875 129.5625 C715.27591797 130.48579102 715.27591797 130.48579102 713.64453125 131.42773438 C710.42942477 133.28470194 707.21464622 135.14223579 704 137 C690.05155632 145.06089304 676.08996112 153.09709426 662.09527588 161.07736206 C654.03736788 165.67394223 646.00582214 170.3132416 638 175 C629.40477328 180.0318069 620.7768787 185.00389072 612.125 189.9375 C599.79974804 196.96603507 587.50277933 204.04240434 575.21777344 211.14111328 C568.72874904 214.88978034 562.2366305 218.63308667 555.74511719 222.37744141 C550.35251686 225.48818339 544.96062178 228.60013327 539.5703125 231.71484375 C527.77009125 238.5313374 515.9529435 245.31665199 504.1144104 252.06628418 C494.67455155 257.45015281 485.27248377 262.89652377 475.89990234 268.39672852 C474.11073374 269.4454039 472.31825954 270.48846722 470.52197266 271.52490234 C468.83302651 272.51276416 467.16052058 273.52925488 465.50537109 274.57275391 C464.72371582 275.05019043 463.94206055 275.52762695 463.13671875 276.01953125 C462.45697998 276.44983643 461.77724121 276.8801416 461.0769043 277.32348633 C458.08274226 278.29877997 456.76744726 277.40702214 454 276 C452.09533764 274.98639972 450.20853102 273.9388767 448.3359375 272.8671875 C447.22798828 272.23425781 446.12003906 271.60132813 444.97851562 270.94921875 C443.77723232 270.25800612 442.57606356 269.56659438 441.375 268.875 C440.11917001 268.15489667 438.86331013 267.43484547 437.60742188 266.71484375 C428.06954746 261.23621895 418.60568799 255.63800029 409.15649414 250.0078125 C401.0893469 245.2109721 392.96945761 240.51660783 384.8125 235.875 C373.1382599 229.23153897 361.51837049 222.49998753 349.92675781 215.71337891 C344.9949194 212.82618822 340.06044184 209.94352583 335.125 207.0625 C334.13983398 206.48741699 333.15466797 205.91233398 332.13964844 205.31982422 C324.7727766 201.02387801 317.38933859 196.7571643 310 192.5 C296.64990822 184.80871162 283.34266958 177.0451709 270.04101562 169.27050781 C258.71147109 162.64978188 247.37023397 156.05064773 236 149.5 C222.64990822 141.80871162 209.34266958 134.0451709 196.04101562 126.27050781 C184.71147109 119.64978188 173.37023397 113.05064773 162 106.5 C148.64990822 98.80871162 135.34266958 91.0451709 122.04101562 83.27050781 C119.06934495 81.53393164 116.09730626 79.79798808 113.125 78.0625 C112.13781982 77.48604736 111.15063965 76.90959473 110.13354492 76.31567383 C102.83388712 72.0579838 95.51304675 67.83794701 88.1875 63.625 C77.81713121 57.66080422 67.51206946 51.593229 57.24487305 45.45361328 C52.16275559 42.42362667 47.06360103 39.42867817 41.90234375 36.53515625 C41.02956787 36.04539307 40.15679199 35.55562988 39.25756836 35.05102539 C36.96175489 33.78897062 36.96175489 33.78897062 34 34 C33.77747798 82.31810178 33.57050781 130.63624016 33.44953918 178.95471191 C33.44774444 179.66975413 33.4459497 180.38479634 33.44410057 181.1215065 C33.40519345 196.66102155 33.36918099 212.20054205 33.33615072 227.74007067 C33.31993524 235.36056915 33.30308005 242.98106616 33.28588867 250.6015625 C33.2841888 251.35989652 33.28248894 252.11823053 33.28073756 252.89954437 C33.22533241 277.48275316 33.12768033 302.06557369 33.00813613 326.64854722 C32.88551941 351.90921195 32.80549108 377.16966178 32.77910513 402.43061908 C32.77535908 405.99792079 32.7711258 409.56522178 32.76659584 413.13252258 C32.76571934 413.83462364 32.76484284 414.5367247 32.76393978 415.26010155 C32.74857271 426.56560417 32.68826687 437.87044264 32.61118356 449.17567433 C32.53465958 460.53937677 32.50646567 471.90222081 32.52448209 483.26624292 C32.53282738 489.42480931 32.5198438 495.58142545 32.45032883 501.73964691 C32.38716523 507.3762588 32.38379331 513.0096057 32.42831437 518.64636642 C32.43381789 520.68693772 32.41722829 522.72771087 32.37651863 524.76788348 C31.77154223 534.67860278 31.77154223 534.67860278 35.24771048 543.5661155 C38.74820612 546.60635489 42.72352917 548.25677338 47 550 C49.13644901 551.17665968 51.26110782 552.3752774 53.3671875 553.60546875 C55.53493064 554.80225048 57.70424709 555.99618618 59.875 557.1875 C62.25348589 558.49970799 64.63063357 559.81433243 67.0078125 561.12890625 C67.59925049 561.45562317 68.19068848 561.78234009 68.80004883 562.11895752 C74.46958969 565.25322506 80.11331709 568.43211516 85.75 571.625 C86.68247559 572.15311279 87.61495117 572.68122559 88.57568359 573.2253418 C90.44709357 574.28569925 92.31835098 575.34632601 94.18945312 576.40722656 C98.95718094 579.10915987 103.72883939 581.80413477 108.5 584.5 C110.42318322 585.58722874 112.34636031 586.6744683 114.26953125 587.76171875 C118.03674606 589.89112526 121.8050343 592.01861323 125.57421875 594.14453125 C135.43000907 599.70573021 145.27031098 605.29278547 155.09088135 610.91595459 C166.6843127 617.55408741 178.31721908 624.11795368 189.98046875 630.6328125 C198.72490092 635.51886794 207.44016795 640.45644792 216.15722656 645.39111328 C220.93693737 648.09622271 225.71857102 650.7979291 230.5 653.5 C232.41667576 654.58331725 234.33334243 655.66665057 236.25 656.75 C237.19875 657.28625 238.1475 657.8225 239.125 658.375 C265 673 290.875 687.625 316.75 702.25 C317.69834717 702.7860083 318.64669434 703.3220166 319.6237793 703.87426758 C321.54456346 704.95995655 323.46529897 706.04573158 325.38598633 707.1315918 C330.11426453 709.80458422 334.84331912 712.47618087 339.57421875 715.14453125 C349.43000907 720.70573021 359.27031098 726.29278547 369.09088135 731.91595459 C380.6843127 738.55408741 392.31721908 745.11795368 403.98046875 751.6328125 C412.72490092 756.51886794 421.44016795 761.45644792 430.15722656 766.39111328 C434.93693737 769.09622271 439.71857102 771.7979291 444.5 774.5 C446.41667576 775.58331725 448.33334243 776.66665057 450.25 777.75 C451.19875 778.28625 452.1475 778.8225 453.125 779.375 C471.33333333 789.66666667 489.54166667 799.95833333 507.75 810.25 C508.70003906 810.7869751 509.65007812 811.3239502 510.62890625 811.87719727 C512.53256423 812.9531849 514.43621019 814.02919378 516.33984375 815.10522461 C521.33044169 817.92612758 526.32128963 820.746587 531.3125 823.56640625 C532.86614258 824.44425781 532.86614258 824.44425781 534.45117188 825.33984375 C536.42635477 826.45586637 538.40161056 827.57176001 540.37695312 828.6875 C545.25851475 831.44588062 550.13465079 834.21311728 555 837 C551.73431167 839.6177343 548.29349292 841.53631725 544.59375 843.484375 C543.96569458 843.81644958 543.33763916 844.14852417 542.69055176 844.49066162 C541.33648637 845.20613337 539.98159888 845.92005097 538.62597656 846.63256836 C535.72817104 848.15567997 532.83430877 849.68621492 529.94018555 851.21630859 C528.4535729 852.00217593 526.96675485 852.78765483 525.47973633 853.57275391 C518.63755603 857.18626861 511.81668969 860.838608 505 864.5 C497.4709576 868.54134428 489.93555418 872.56999226 482.38671875 876.57421875 C481.66074493 876.95937653 480.93477112 877.3445343 480.1867981 877.74136353 C476.6482146 879.61833585 473.10883796 881.49379237 469.56835938 883.3671875 C468.27863113 884.05075351 466.9889169 884.73434597 465.69921875 885.41796875 C464.01058716 886.31165161 464.01058716 886.31165161 462.2878418 887.22338867 C460.56271351 888.15557539 458.84150969 889.10430416 457.20352173 890.18228149 C455.39379883 891.34887695 455.39379883 891.34887695 452 893 C449.36181641 892.41845703 449.36181641 892.41845703 447 891 C446.2270459 890.58476074 445.4540918 890.16952148 444.65771484 889.74169922 C443.85027832 889.26748535 443.0428418 888.79327148 442.2109375 888.3046875 C441.2832959 887.76191162 440.3556543 887.21913574 439.39990234 886.65991211 C438.40168457 886.07089111 437.4034668 885.48187012 436.375 884.875 C434.798396 883.94989624 434.798396 883.94989624 433.18994141 883.00610352 C429.79042667 881.00890739 426.39437685 879.00590983 423 877 C421.87464844 876.33500488 420.74929688 875.67000977 419.58984375 874.98486328 C412.79200869 870.96450187 405.99969418 866.9348794 399.20849609 862.90332031 C394.3715481 860.03398181 389.52991413 857.17260117 384.6875 854.3125 C383.79554932 853.7855957 382.90359863 853.25869141 381.98461914 852.71582031 C379.32316863 851.14372911 376.66160508 849.57182949 374 848 C361.58348345 840.66733936 349.17204198 833.32622014 336.76763916 825.9730835 C326.40704006 819.83166666 316.03995026 813.70131144 305.66943359 807.57666016 C300.19165259 804.34129252 294.71481942 801.10432054 289.23779297 797.86767578 C284.71741945 795.19643682 280.19684808 792.52553415 275.67578125 789.85546875 C265.03445043 783.57023827 254.39898861 777.27518174 243.76763916 770.9730835 C232.51805905 764.30470844 221.2604767 757.64995323 210 751 C197.58348345 743.66733936 185.17204198 736.32622014 172.76763916 728.9730835 C161.51805905 722.30470844 150.2604767 715.64995323 139 709 C126.58348345 701.66733936 114.17204198 694.32622014 101.76763916 686.9730835 C94.07725323 682.41447978 86.38455021 677.85984263 78.6875 673.3125 C77.36286743 672.52987793 77.36286743 672.52987793 76.01147461 671.73144531 C71.43287438 669.02673021 66.85346665 666.32338845 62.2734375 663.62109375 C61.32549316 663.06147949 60.37754883 662.50186523 59.40087891 661.92529297 C57.53381353 660.82329722 55.66631243 659.7220393 53.79833984 658.62158203 C49.64435926 656.17083155 45.50160855 653.70591692 41.390625 651.18359375 C40.34733032 650.54599121 40.34733032 650.54599121 39.28295898 649.89550781 C38.01065972 649.11551317 36.74167249 648.33007801 35.47680664 647.53808594 C32.73359566 645.85819388 31.28544489 645 28 645 C27.43857703 672.00716328 27.01577019 699.01344877 26.75650787 726.02527809 C26.6329071 738.56864444 26.46452405 751.10837949 26.18945312 763.64941406 C25.94971952 774.58459205 25.79529044 785.51714069 25.74187613 796.45487344 C25.71065893 802.24450571 25.63773027 808.0266191 25.46247864 813.81383133 C23.66124039 836.43913253 23.66124039 836.43913253 30.28186035 857.2382431 C35.78599717 862.2107874 41.81616156 864.73990149 48.83634949 866.89164352 C54.20626197 868.77294402 58.88023056 871.81268958 63.6875 874.8125 C64.78835937 875.45445312 65.88921875 876.09640625 67.0234375 876.7578125 C78.4571547 883.43027503 89.8755782 890.128811 101.29443359 896.82666016 C104.95246863 898.97224418 108.6109273 901.11710499 112.26953125 903.26171875 C112.86664917 903.6117395 113.46376709 903.96176025 114.07897949 904.3223877 C115.88597897 905.38160436 117.69298764 906.44080533 119.5 907.5 C126.18900927 911.42081599 132.8779934 915.34167371 139.56582642 919.26449585 C151.37017338 926.1884396 163.17652225 933.10874869 175 940 C187.44456957 947.25325139 199.87001202 954.53897878 212.29443359 961.82666016 C215.95246863 963.97224418 219.6109273 966.11710499 223.26953125 968.26171875 C224.16520813 968.78674988 224.16520813 968.78674988 225.07897949 969.3223877 C226.88597897 970.38160436 228.69298764 971.44080533 230.5 972.5 C237.18900927 976.42081599 243.8779934 980.34167371 250.56582642 984.26449585 C262.37017338 991.1884396 274.17652225 998.10874869 286 1005 C298.44456957 1012.25325139 310.87001202 1019.53897878 323.29443359 1026.82666016 C326.95246863 1028.97224418 330.6109273 1031.11710499 334.26953125 1033.26171875 C334.86664917 1033.6117395 335.46376709 1033.96176025 336.07897949 1034.3223877 C337.88597897 1035.38160436 339.69298764 1036.44080533 341.5 1037.5 C348.18900927 1041.42081599 354.8779934 1045.34167371 361.56582642 1049.26449585 C374.33276726 1056.75305752 387.10422058 1064.23358701 399.89257812 1071.68554688 C405.9837676 1075.23637352 412.06938026 1078.79654684 418.15000916 1082.36541748 C421.27172951 1084.197629 424.39427091 1086.02839487 427.51928711 1087.85498047 C433.00380254 1091.06177741 438.47989267 1094.27980871 443.921875 1097.55859375 C444.80125732 1098.08300049 445.68063965 1098.60740723 446.58666992 1099.14770508 C448.18660484 1100.10236499 449.78097988 1101.06643343 451.3684082 1102.04174805 C454.85041863 1104.29872463 454.85041863 1104.29872463 458.82006836 1104.83544922 C461.87791502 1103.66354293 464.61262244 1102.03040109 467.40625 1100.34375 C468.34860504 1099.78287186 468.34860504 1099.78287186 469.30999756 1099.21066284 C471.37639825 1097.97882967 473.4382385 1096.73957976 475.5 1095.5 C476.94739568 1094.63460138 478.3949894 1093.76953391 479.84277344 1092.90478516 C492.45703445 1085.36127057 505.02319686 1077.73812965 517.57324219 1070.08837891 C523.33751694 1066.57485552 529.1056581 1063.06769536 534.875 1059.5625 C535.73695984 1059.03870758 535.73695984 1059.03870758 536.61633301 1058.5043335 C546.35429784 1052.58841933 556.12006173 1046.71966348 565.8949585 1040.86502075 C574.94921525 1035.44136774 583.98331395 1029.98587195 593 1024.5 C603.27494857 1018.24858437 613.57731521 1012.04449823 623.89550781 1005.86474609 C632.94957627 1000.44117698 641.98348884 994.98576554 651 989.5 C661.27494857 983.24858437 671.57731521 977.04449823 681.89550781 970.86474609 C690.94957627 965.44117698 699.98348884 959.98576554 709 954.5 C719.27494857 948.24858437 729.57731521 942.04449823 739.89550781 935.86474609 C748.94957627 930.44117698 757.98348884 924.98576554 767 919.5 C777.27327617 913.24960188 787.57394604 907.04649181 797.89047241 900.86776733 C807.63750145 895.029131 817.35932547 889.15038595 827.06640625 883.24560547 C835.1941289 878.30215 843.33812148 873.38688262 851.5 868.5 C860.70525174 862.98738026 869.89049039 857.44268514 879.0625 851.875 C879.65627441 851.5147876 880.25004883 851.1545752 880.86181641 850.78344727 C887.26750313 846.89664014 893.65799007 842.98995484 900 839 C899.66408444 836.23761471 899.30074986 835.23764746 897.08007812 833.48291016 C895.8184082 832.76820557 895.8184082 832.76820557 894.53125 832.0390625 C893.10437866 831.21873535 893.10437866 831.21873535 891.64868164 830.38183594 C890.6096167 829.80208008 889.57055176 829.22232422 888.5 828.625 C887.42935303 828.01430664 886.35870605 827.40361328 885.25561523 826.77441406 C881.84524953 824.83471426 878.4242708 822.91503181 875 821 C873.90703613 820.38672852 872.81407227 819.77345703 871.68798828 819.14160156 C867.41567916 816.74489333 863.14164727 814.35136504 858.86254883 811.96679688 C852.42877586 808.37866342 846.05026951 804.71542817 839.71630859 800.95458984 C833.08045379 797.02403731 826.38634227 793.19693779 819.6875 789.375 C819.09210419 789.03521118 818.49670837 788.69542236 817.88327026 788.34533691 C812.9852253 785.55040684 808.08564046 782.75818076 803.18585205 779.96630859 C799.03983245 777.60382731 794.8944923 775.24015964 790.75 772.875 C790.16804871 772.54298584 789.58609741 772.21097168 788.98651123 771.86889648 C780.89954754 767.25322779 772.84526303 762.58436272 764.8125 757.875 C756.75985815 753.1547159 748.65523578 748.54065335 740.5 744 C731.35319684 738.90726405 722.28303059 733.69957084 713.25244141 728.40380859 C702.01280938 721.81899225 690.69798021 715.36701855 679.37475586 708.92724609 C676.98540499 707.56274231 674.60106685 706.19141872 672.22094727 704.81103516 C671.5934256 704.44851654 670.96590393 704.08599792 670.31936646 703.7124939 C668.56569896 702.69891685 666.8139186 701.68207679 665.06225586 700.66503906 C662.45925042 699.24970803 659.97158896 698.11634264 657.1875 697.125 C651.11573888 694.84443483 645.72996652 691.41333366 640.19140625 688.08984375 C634.03615202 684.40252673 627.79782181 680.86204237 621.5625 677.3125 C619.12594029 675.923811 616.68982223 674.53434909 614.25390625 673.14453125 C613.64635498 672.7979245 613.03880371 672.45131775 612.4128418 672.09420776 C606.26325155 668.58353982 600.13073606 665.04347446 594 661.5 C585.0545152 656.3315883 576.09645074 651.18568612 567.125 646.0625 C566.54461975 645.73105988 565.9642395 645.39961975 565.36627197 645.05813599 C561.24463022 642.70463724 557.12238449 640.35219747 553 638 C548.2912509 635.31322789 543.58277082 632.62598595 538.875 629.9375 C538.29445862 629.60597931 537.71391724 629.27445862 537.11578369 628.93289185 C527.65764373 623.53051829 518.21953894 618.09394218 508.78857422 612.64428711 C500.87237125 608.07273082 492.93976686 603.53044061 485 599 C475.98636803 593.85681066 466.98550083 588.69224508 458 583.5 C449.05445532 578.33168948 440.09636584 573.18583674 431.125 568.0625 C430.54528442 567.73139221 429.96556885 567.40028442 429.36828613 567.05914307 C423.45983362 563.68478936 417.54986911 560.31309538 411.63832092 556.94416809 C408.67509502 555.25523789 405.71241688 553.56534878 402.75 551.875 C401.87584946 551.37629898 401.87584946 551.37629898 400.98403931 550.86752319 C392.89790307 546.25230757 384.84444921 541.5838856 376.8125 536.875 C368.75985815 532.1547159 360.65523578 527.54065335 352.5 523 C343.34286452 517.90151124 334.26307238 512.68692184 325.22167969 507.38623047 C317.59200859 502.91721071 309.9300817 498.50663869 302.25 494.125 C301.66701141 493.79230103 301.08402283 493.45960205 300.48336792 493.11682129 C296.32313452 490.74298665 292.16171494 488.37123606 288 486 C283.24917799 483.29310618 278.49897319 480.58513627 273.75 477.875 C272.87612137 477.37643494 272.87612137 477.37643494 271.98458862 476.86779785 C262.9160087 471.69186828 253.89328061 466.44068006 244.88598633 461.15893555 C236.64885207 456.34425804 228.33618276 451.67104133 219.9855957 447.05615234 C218.09166156 446.00515542 216.21207971 444.92775657 214.34989929 443.82147217 C211.89030535 442.48409408 209.77263286 441.51383877 207.18322754 440.57125854 C202.78266881 438.77905683 198.95951618 436.81307943 196 433 C193.17698022 425.17007992 194.11845045 416.23946884 194.31640625 408.05859375 C194.32194978 405.60523576 194.32087119 403.15185465 194.3134613 400.69850159 C194.31172648 394.26064457 194.39960672 387.82704588 194.50646973 381.39019775 C194.59968335 374.81437238 194.60773211 368.23849593 194.62304688 361.66210938 C194.66556508 348.77333871 194.79991008 335.88723871 195 323 C196.03337746 323.57871101 196.03337746 323.57871101 197.08763123 324.16911316 C213.68123327 333.46236336 213.68123327 333.46236336 230.27661133 342.75244141 C232.23919967 343.85146336 234.20122474 344.95149146 236.1628418 346.05224609 C240.76066228 348.63171419 245.36133374 351.20424625 249.984375 353.73828125 C250.72550537 354.14715576 251.46663574 354.55603027 252.23022461 354.97729492 C253.5612867 355.7109475 254.89518431 356.43949395 256.23266602 357.16137695 C258.7392541 358.54834872 260.85327357 359.84785073 262.84960938 361.91796875 C265.22051143 364.21350153 267.52286273 365.60178727 270.41796875 367.1796875 C271.4946582 367.77152832 272.57134766 368.36336914 273.68066406 368.97314453 C274.83791992 369.60075684 275.99517578 370.22836914 277.1875 370.875 C278.40245002 371.54071649 279.61696196 372.20723305 280.83105469 372.87451172 C283.32990506 374.24752946 285.83023425 375.6177946 288.33154297 376.98632812 C293.82458784 379.99632431 299.28751407 383.05999366 304.75 386.125 C305.77697998 386.70040527 306.80395996 387.27581055 307.86206055 387.86865234 C315.69946056 392.26244946 323.52190017 396.68244169 331.34130859 401.1081543 C342.53977108 407.44309291 353.77053927 413.72023063 365 420 C378.1291297 427.34210739 391.24965906 434.69828589 404.34082031 442.10791016 C412.37389415 446.65210707 420.41692038 451.1785089 428.48168945 455.66625977 C433.40626417 458.40931908 438.31599359 461.1711389 443.18347168 464.01463318 C444.90462991 465.01890844 446.63027158 466.01548701 448.35595703 467.01196289 C450.53011041 468.26856173 452.69688391 469.53804219 454.85498047 470.82202148 C456.32475342 471.66615601 456.32475342 471.66615601 457.82421875 472.52734375 C458.68104248 473.02999756 459.53786621 473.53265137 460.4206543 474.05053711 C463.76476011 475.2815099 465.586417 474.96047478 469 474 C471.80958357 472.64846146 471.80958357 472.64846146 474.5859375 470.8515625 C475.66488281 470.18576172 476.74382812 469.51996094 477.85546875 468.83398438 C478.71277588 468.29584106 478.71277588 468.29584106 479.58740234 467.74682617 C482.05225642 466.19998043 484.53026363 464.67480085 487.00787354 463.14849854 C488.3217643 462.33907547 489.63502711 461.5286323 490.94769287 460.71722412 C497.57773882 456.62474993 504.27633236 452.65141859 510.98516846 448.68988037 C521.69948484 442.36242595 532.37585757 435.97769142 543 429.5 C553.63328845 423.01673213 564.3236673 416.63522658 575.04101562 410.29199219 C584.39684031 404.75294929 593.71690012 399.16003861 603 393.5 C613.63328845 387.01673213 624.3236673 380.63522658 635.04101562 374.29199219 C644.39683794 368.75295069 653.71699795 363.16019688 663 357.5 C674.58081517 350.43938198 686.22632942 343.492447 697.90429688 336.59375 C698.54645645 336.21388443 699.18861603 335.83401886 699.85023499 335.44264221 C701.57657098 334.42162337 703.3037519 333.4020335 705.03100586 332.38256836 C708.62550313 330.24149691 712.18629608 328.04599148 715.74806213 325.85108948 C716.65126025 325.29486995 716.65126025 325.29486995 717.57270479 324.72741365 C719.04859199 323.81847404 720.52431275 322.9092642 722 322 C721.99376212 322.63408647 721.98752424 323.26817294 721.98109734 323.92147416 C721.6139008 361.53243957 721.36189977 399.14254687 721.25874502 436.75519634 C721.24625029 441.27486986 721.2327966 445.79454004 721.21875 450.31420898 C721.21596979 451.21396461 721.21318957 452.11372024 721.21032511 453.04074118 C721.16306666 467.59538771 721.03819138 482.14838018 720.88444389 496.70224687 C720.728327 511.64461457 720.65605305 526.58570647 720.66102016 541.52889711 C720.66145834 550.74535381 720.59712432 559.95662416 720.44893317 569.17190907 C720.35347862 575.49803696 720.33974172 581.82111855 720.38913949 588.14775904 C720.41524718 591.79633586 720.40642486 595.43563004 720.30010414 599.08295441 C719.4092562 613.6794939 719.4092562 613.6794939 725.15955496 626.41878915 C730.41481758 630.60993793 736.15779324 633.37877716 742.3612659 635.88844931 C746.02864403 637.43331004 749.26800459 639.40159471 752.6484375 641.49609375 C754.890346 642.81037187 757.13253137 644.12417781 759.375 645.4375 C760.60571556 646.15860548 761.83642838 646.87971563 763.06713867 647.60083008 C774.70206232 654.41660496 786.34956278 661.2107833 798 668 C811.45821574 675.84268791 824.90797304 683.69947213 838.34326172 691.58135986 C847.90623742 697.19143977 857.47814496 702.78586419 867.0625 708.359375 C867.96355469 708.88402344 868.86460937 709.40867187 869.79296875 709.94921875 C871.08533447 710.70017822 871.08533447 710.70017822 872.40380859 711.46630859 C874.20994331 712.53327665 876.00379651 713.62119689 877.78759766 714.72509766 C879.12443604 715.55146729 879.12443604 715.55146729 880.48828125 716.39453125 C881.28403564 716.8944458 882.07979004 717.39436035 882.8996582 717.90942383 C885.04931361 719.23040998 885.04931361 719.23040998 888 719 C888 492.62 888 266.24 888 33 C884.47400087 33 883.12846975 33.84616626 880.08203125 35.5703125 Z " fill="#F7F6F6" transform="translate(0,0)"/>
<path d="M0 0 C0 225.72 0 451.44 0 684 C-12.37852975 677.24807468 -12.37852975 677.24807468 -17.33984375 674.37890625 C-18.42330078 673.75306641 -19.50675781 673.12722656 -20.62304688 672.48242188 C-21.71681641 671.84884766 -22.81058594 671.21527344 -23.9375 670.5625 C-25.02740234 669.93279297 -26.11730469 669.30308594 -27.24023438 668.65429688 C-29.41378702 667.39769157 -31.5848982 666.13685276 -33.75341797 664.87158203 C-35.9725604 663.59229598 -38.20690969 662.33912608 -40.45361328 661.10888672 C-41.54270996 660.50447754 -42.63180664 659.90006836 -43.75390625 659.27734375 C-44.73818604 658.74230225 -45.72246582 658.20726074 -46.73657227 657.65600586 C-49.29754381 655.78230615 -49.5174473 655.02338892 -50 652 C-51.31647119 651.30062468 -52.65022151 650.63270867 -54 650 C-54.495 648.515 -54.495 648.515 -55 647 C-55.66 647 -56.32 647 -57 647 C-57 646.01 -57 645.02 -57 644 C-57.99 643.67 -58.98 643.34 -60 643 C-57.20585771 641.09998324 -55.94878997 641.00457232 -52.5 641.3125 C-49.97075899 641.8093152 -47.48063884 642.30542112 -45 643 C-45 643.99 -45 644.98 -45 646 C-44.236875 645.814375 -43.47375 645.62875 -42.6875 645.4375 C-40 645 -40 645 -37 646 C-37 646.66 -37 647.32 -37 648 C-35.02 648.33 -33.04 648.66 -31 649 C-31 650.32 -31 651.64 -31 653 C-29.68 653 -28.36 653 -27 653 C-27 652.01 -27 651.02 -27 650 C-25.02 650 -23.04 650 -21 650 C-21 650.66 -21 651.32 -21 652 C-18.03 651.67 -15.06 651.34 -12 651 C-12 651.66 -12 652.32 -12 653 C-10.68 653.66 -9.36 654.32 -8 655 C-7.67 654.34 -7.34 653.68 -7 653 C-5.35 653 -3.7 653 -2 653 C-2 553.01 -2 453.02 -2 350 C-4.31 350 -6.62 350 -9 350 C-9 349.01 -9 348.02 -9 347 C-8.34 347 -7.68 347 -7 347 C-7 347.66 -7 348.32 -7 349 C-5.02 349 -3.04 349 -1 349 C-1 234.49 -1 119.98 -1 2 C-1.66 1.67 -2.32 1.34 -3 1 C-1 0 -1 0 0 0 Z " fill="#C96A1E" transform="translate(887,34)"/>
<path d="M0 0 C0.33 99.99 0.66 199.98 1 303 C4.63 304.98 8.26 306.96 12 309 C9 310 9 310 6.5546875 308.85546875 C5.22824219 308.02982422 5.22824219 308.02982422 3.875 307.1875 C2.98554687 306.64480469 2.09609375 306.10210938 1.1796875 305.54296875 C-1 304 -1 304 -2 302 C-2.08899109 300.36867562 -2.11360327 298.73366612 -2.10743046 297.0999279 C-2.10519194 295.53687693 -2.10519194 295.53687693 -2.10290819 293.94224918 C-2.0961044 292.78857227 -2.08930061 291.63489536 -2.08229065 290.44625854 C-2.07906152 289.22765109 -2.07583239 288.00904364 -2.07250541 286.75350869 C-2.06249484 283.36032452 -2.04794532 279.96721349 -2.03152263 276.57405782 C-2.01492312 272.91899261 -2.00411473 269.26390985 -1.99261475 265.60882568 C-1.97188091 259.27258669 -1.94745109 252.9363705 -1.92053413 246.60015488 C-1.8816217 237.43897141 -1.84824732 228.27777441 -1.81623887 219.11656453 C-1.76416036 204.25428867 -1.70758256 189.39203346 -1.64819336 174.52978516 C-1.59050067 160.08968917 -1.53491574 145.64958762 -1.48217773 131.20947266 C-1.47892802 130.31987342 -1.4756783 129.43027419 -1.4723301 128.5137174 C-1.45604079 124.05100556 -1.43979305 119.58829357 -1.42356598 115.1255815 C-1.28882249 78.08369545 -1.14678473 41.04184019 -1 4 C-3.64 4.66 -6.28 5.32 -9 6 C-6.84456686 3.61767916 -3.40706718 0 0 0 Z " fill="#FEF2E2" transform="translate(723,321)"/>
<path d="M0 0 C4.11401529 0.59426224 7.04662594 1.95217183 10.62890625 4.03515625 C12.2835791 4.98962646 12.2835791 4.98962646 13.97167969 5.96337891 C15.16866737 6.66300454 16.36560614 7.36271386 17.5625 8.0625 C18.81240217 8.78637602 20.06273542 9.50950816 21.31347656 10.23193359 C23.91455664 11.73499489 26.51374662 13.24125373 29.11181641 14.74951172 C32.80855782 16.89272198 36.51691943 19.01497926 40.23046875 21.12890625 C41.10478546 21.62667824 41.10478546 21.62667824 41.99676514 22.13450623 C43.16531844 22.79968725 44.3338974 23.4648232 45.50250244 24.12991333 C54.76469521 29.40413217 63.99254652 34.73428065 73.1875 40.125 C81.24014185 44.8452841 89.34476422 49.45934665 97.5 54 C106.65713548 59.09848876 115.73692762 64.31307816 124.77832031 69.61376953 C132.40798963 74.08278824 140.06983981 78.4935006 147.75 82.875 C148.32900055 83.20537262 148.9080011 83.53574524 149.50454712 83.87612915 C152.45769265 85.56089213 155.41131748 87.24481253 158.36523438 88.92822266 C163.976711 92.12629361 169.5859394 95.32830009 175.19445801 98.53155518 C176.9337054 99.5246465 178.67338712 100.51697703 180.41308594 101.50927734 C187.6331772 105.6318138 194.82582489 109.79809857 202 114 C199 115 199 115 196.71704102 113.99047852 C195.82170654 113.45865967 194.92637207 112.92684082 194.00390625 112.37890625 C192.98506348 111.78150635 191.9662207 111.18410645 190.91650391 110.56860352 C189.80968262 109.90658936 188.70286133 109.2445752 187.5625 108.5625 C186.3957109 107.87504592 185.22821676 107.18878722 184.06005859 106.50366211 C182.23064275 105.4303744 180.40178062 104.3562279 178.57507324 103.27833557 C172.12866762 99.47453722 165.62946054 95.76615479 159.125 92.0625 C157.95537777 91.39496329 156.78586332 90.72723768 155.61645508 90.05932617 C150.29202909 87.01826466 144.96585783 83.98027303 139.63853455 80.94429016 C136.67523761 79.25531896 133.71249042 77.56538538 130.75 75.875 C130.17188568 75.54519135 129.59377136 75.21538269 128.99813843 74.87557983 C119.65414334 69.54249304 110.34806178 64.14675496 101.07519531 58.69091797 C96.58751716 56.05775158 92.08118835 53.48241323 87.50390625 51.0078125 C80.97565399 47.47348589 74.62017304 43.66490462 68.25 39.85546875 C62.83652087 36.63352592 57.371807 33.54908038 51.83007812 30.55371094 C46.74495841 27.76198372 41.75220757 24.81190217 36.75 21.875 C33.7110231 20.09470383 30.67171735 18.31503049 27.62963867 16.54003906 C26.04667419 15.61298123 24.46744421 14.67944084 22.89575195 13.73339844 C18.71522232 11.24721788 14.83407647 9.99966252 10.13671875 8.90625 C7.41926183 7.75369057 7.17502963 6.62474152 6 4 C2.9665533 2.23272142 2.9665533 2.23272142 0 1 C0 0.67 0 0.34 0 0 Z " fill="#CB864E" transform="translate(659,699)"/>
<path d="M0 0 C0.99 0.33 1.98 0.66 3 1 C3 1.66 3 2.32 3 3 C3.99 3.495 3.99 3.495 5 4 C2.21978582 4.92673806 0.52766109 5.12855766 -2.34375 5.1328125 C-3.17777344 5.13410156 -4.01179687 5.13539063 -4.87109375 5.13671875 C-5.73863281 5.13285156 -6.60617187 5.12898438 -7.5 5.125 C-8.80130859 5.13080078 -8.80130859 5.13080078 -10.12890625 5.13671875 C-10.96292969 5.13542969 -11.79695312 5.13414062 -12.65625 5.1328125 C-13.41744141 5.13168457 -14.17863281 5.13055664 -14.96289062 5.12939453 C-17 5 -17 5 -20 4 C-20 4.66 -20 5.32 -20 6 C-21.65 6 -23.3 6 -25 6 C-25.33 6.66 -25.66 7.32 -26 8 C-33.92 8 -41.84 8 -50 8 C-50.33 9.32 -50.66 10.64 -51 12 C-54.31371 14.20914 -55.3446021 14.22481553 -59.1875 14.125 C-60.08855469 14.10695313 -60.98960937 14.08890625 -61.91796875 14.0703125 C-62.60503906 14.04710937 -63.29210937 14.02390625 -64 14 C-64 13.34 -64 12.68 -64 12 C-60.58810914 11.14702729 -58.3577347 10.9579444 -55 12 C-54.34 12 -53.68 12 -53 12 C-53 11.01 -53 10.02 -53 9 C-52.34 9 -51.68 9 -51 9 C-51 8.34 -51 7.68 -51 7 C-43.06303572 5.63389377 -35.97410877 4.62515366 -28 6 C-28 4.68 -28 3.36 -28 2 C-27.34 2 -26.68 2 -26 2 C-26 2.66 -26 3.32 -26 4 C-23.525 4.495 -23.525 4.495 -21 5 C-21 4.34 -21 3.68 -21 3 C-19.35 2.67 -17.7 2.34 -16 2 C-16 2.66 -16 3.32 -16 4 C-14.865625 3.814375 -13.73125 3.62875 -12.5625 3.4375 C-7.92303203 2.83992989 -3.60427319 3.30722741 1 4 C0.505 2.02 0.505 2.02 0 0 Z M-65 14 C-64.67 14 -64.34 14 -64 14 C-64 15.65 -64 17.3 -64 19 C-66.64 19.33 -69.28 19.66 -72 20 C-72 20.66 -72 21.32 -72 22 C-72.99 22 -73.98 22 -75 22 C-75.33 22.66 -75.66 23.32 -76 24 C-78 22.625 -78 22.625 -80 21 C-80 20.34 -80 19.68 -80 19 C-77.69 19.66 -75.38 20.32 -73 21 C-72.67 20.01 -72.34 19.02 -72 18 C-69.69 18 -67.38 18 -65 18 C-65 16.68 -65 15.36 -65 14 Z " fill="#DD7725" transform="translate(872,380)"/>
<path d="M0 0 C1.65 0 3.3 0 5 0 C5.33 1.98 5.66 3.96 6 6 C6.66 5.67 7.32 5.34 8 5 C10.0234375 5.0859375 10.0234375 5.0859375 12.375 5.375 C13.14585937 5.46523438 13.91671875 5.55546875 14.7109375 5.6484375 C16.85515749 5.97775456 18.90663641 6.43603447 21 7 C21 7.66 21 8.32 21 9 C23.64 9.33 26.28 9.66 29 10 C29 10.66 29 11.32 29 12 C31.97 12.495 31.97 12.495 35 13 C35 14.32 35 15.64 35 17 C35.66 17 36.32 17 37 17 C37 16.01 37 15.02 37 14 C38.65 14 40.3 14 42 14 C40.68 14.33 39.36 14.66 38 15 C38 15.99 38 16.98 38 18 C36.68 18 35.36 18 34 18 C34 16.68 34 15.36 34 14 C32.02 13.67 30.04 13.34 28 13 C28 12.34 28 11.68 28 11 C25.36 11 22.72 11 20 11 C20 10.01 20 9.02 20 8 C18.20909747 7.80533668 16.41723495 7.61948787 14.625 7.4375 C13.62726562 7.33308594 12.62953125 7.22867188 11.6015625 7.12109375 C9.015963 6.78855292 9.015963 6.78855292 7 8 C7.33 9.32 7.66 10.64 8 12 C8.66 12 9.32 12 10 12 C11.5078125 13.53125 11.5078125 13.53125 13.125 15.5 C13.66382813 16.1496875 14.20265625 16.799375 14.7578125 17.46875 C15.16773438 17.9740625 15.57765625 18.479375 16 19 C11.90540797 19 9.23249165 17.03072724 5.8125 15 C5.15830078 14.6184375 4.50410156 14.236875 3.83007812 13.84375 C2.21666455 12.90161068 0.60787702 11.95155734 -1 11 C-1 9.35 -1 7.7 -1 6 C1.97 6.495 1.97 6.495 5 7 C4.67 5.02 4.34 3.04 4 1 C2.68 1.33 1.36 1.66 0 2 C0 1.34 0 0.68 0 0 Z " fill="#D7701E" transform="translate(822,669)"/>
<path d="M0 0 C0.33 0.66 0.66 1.32 1 2 C3.02463255 2.65213292 3.02463255 2.65213292 5 3 C5 3.66 5 4.32 5 5 C0.25 3.125 0.25 3.125 -2 2 C-1.89284556 16.30772785 -1.78003427 30.61540143 -1.66066074 44.92303276 C-1.60540236 51.56602159 -1.55197771 58.20901479 -1.50268555 64.85205078 C-1.45508499 71.25814887 -1.40274379 77.66419202 -1.34705925 84.07022476 C-1.32661613 86.51913212 -1.30790635 88.96805456 -1.29092598 91.41698837 C-1.26692526 94.83647893 -1.23686479 98.25586487 -1.20532227 101.67529297 C-1.1995668 102.69668365 -1.19381134 103.71807434 -1.18788147 104.77041626 C-1.17809265 105.69872253 -1.16830383 106.62702881 -1.15821838 107.58346558 C-1.15176583 108.39279982 -1.14531328 109.20213406 -1.1386652 110.03599358 C-1.12050587 112.07824699 -1.12050587 112.07824699 0 114 C-0.99 114 -1.98 114 -3 114 C-3.15432801 101.03855486 -3.30250317 88.07705508 -3.4429636 75.11545181 C-3.50838498 69.09597184 -3.57587409 63.07653027 -3.64819336 57.05712891 C-3.71799138 51.24110318 -3.78222112 45.42503949 -3.84269524 39.60890961 C-3.86665128 37.39710025 -3.89256668 35.18531116 -3.92053413 32.97354889 C-4.19946934 10.71951797 -4.19946934 10.71951797 -3 1 C-2.01 0.67 -1.02 0.34 0 0 Z " fill="#C46A25" transform="translate(197,321)"/>
<path d="M0 0 C2 2 2 2 2.3125 4.5625 C1.91430788 8.94261328 0.83848396 12.99412898 -1 17 C-1.66 17.33 -2.32 17.66 -3 18 C-3 18.99 -3 19.98 -3 21 C-2.34 21 -1.68 21 -1 21 C1.65308557 32.9953337 3.06563978 44.99631257 3.6875 57.25 C3.73592041 58.1675708 3.78434082 59.0851416 3.83422852 60.03051758 C3.87217529 60.89185303 3.91012207 61.75318848 3.94921875 62.640625 C3.98362061 63.40922852 4.01802246 64.17783203 4.0534668 64.96972656 C4 67 4 67 3 70 C3.99 70 4.98 70 6 70 C6 71.65 6 73.3 6 75 C4.68 74.67 3.36 74.34 2 74 C2.99 74 3.98 74 5 74 C5 73.01 5 72.02 5 71 C4.01 71 3.02 71 2 71 C2 70.01 2 69.02 2 68 C0.35 68 -1.3 68 -3 68 C-2.67 67.01 -2.34 66.02 -2 65 C-0.35 65.33 1.3 65.66 3 66 C3 64.68 3 63.36 3 62 C2.34 61.67 1.68 61.34 1 61 C0.97294271 59.22925083 0.95357805 57.45838289 0.9375 55.6875 C0.92589844 54.70136719 0.91429687 53.71523438 0.90234375 52.69921875 C1 50 1 50 2 47 C0.68 46.67 -0.64 46.34 -2 46 C-1.01 45.505 -1.01 45.505 0 45 C0.16681109 42.08347826 0.16681109 42.08347826 0 39 C-0.66 38.34 -1.32 37.68 -2 37 C-1.68569773 35.6620527 -1.3489496 34.32933181 -1 33 C-1.23278886 30.52842779 -1.23278886 30.52842779 -1.8125 28 C-1.98394531 27.154375 -2.15539062 26.30875 -2.33203125 25.4375 C-2.914849 22.99318826 -2.914849 22.99318826 -4.07421875 20.875 C-5 19 -5 19 -5 16 C-4.01 15.67 -3.02 15.34 -2 15 C-1.66048381 13.43883181 -1.32867456 11.87598662 -1 10.3125 C-0.814375 9.44238281 -0.62875 8.57226562 -0.4375 7.67578125 C-0.01027953 5.06287036 0.07616201 2.64186962 0 0 Z " fill="#DF7A29" transform="translate(757,487)"/>
<path d="M0 0 C4.875 0.875 4.875 0.875 6 2 C8.67058851 2.14115161 11.32432238 2.04247107 14 2 C14 2.99 14 3.98 14 5 C16.82707394 8.41350535 20.09569695 10.38715349 23.9375 12.53125 C25.07960938 13.17707031 26.22171875 13.82289063 27.3984375 14.48828125 C28.59853289 15.15961527 29.79905804 15.83018159 31 16.5 C33.35857259 17.81548018 35.71162313 19.13941669 38.0625 20.46875 C39.10535156 21.05076172 40.14820313 21.63277344 41.22265625 22.23242188 C43.88261752 23.92529456 45.87819384 25.68229567 48 28 C44.25145849 26.59791275 40.88143494 24.88324944 37.421875 22.875 C36.35050293 22.25512207 35.27913086 21.63524414 34.17529297 20.99658203 C33.04494629 20.33770996 31.91459961 19.67883789 30.75 19 C29.58360861 18.32256014 28.41710403 17.64531514 27.25048828 16.96826172 C24.92451577 15.61739586 22.59989573 14.26424467 20.27636719 12.90917969 C17.3564707 11.20771988 14.43288307 9.51285427 11.5078125 7.8203125 C9.96328478 6.92231669 8.41899341 6.02391418 6.875 5.125 C5.81104004 4.51011719 5.81104004 4.51011719 4.72558594 3.8828125 C3.13338676 2.95031964 1.5634739 1.97989311 0 1 C0 0.67 0 0.34 0 0 Z " fill="#CB8248" transform="translate(33,856)"/>
<path d="M0 0 C4.41407545 0.59748251 7.59118181 2.25067864 11.4375 4.45703125 C12.04005615 4.80126633 12.6426123 5.1455014 13.26342773 5.50016785 C14.53268403 6.22731682 15.79998882 6.95788163 17.06542969 7.69165039 C18.98932364 8.80631434 20.91979488 9.90881554 22.8515625 11.00976562 C28.16866725 14.06442371 33.28449255 17.04571332 38 21 C35.15142347 20.39556693 32.95152089 19.53889387 30.4609375 18.0390625 C29.8023877 17.65129639 29.14383789 17.26353027 28.46533203 16.86401367 C27.77552246 16.45513916 27.08571289 16.04626465 26.375 15.625 C20.9715892 12.47515896 16.01940494 9.9597803 9.8203125 8.73046875 C7.33407106 7.732771 7.09335487 6.37349119 6 4 C2.9665533 2.23272142 2.9665533 2.23272142 0 1 C0 0.67 0 0.34 0 0 Z " fill="#C98752" transform="translate(659,699)"/>
<path d="M0 0 C0 0.66 0 1.32 0 2 C-6.75 6 -6.75 6 -9 6 C-9 6.66 -9 7.32 -9 8 C-9.68707031 8.32613281 -10.37414062 8.65226563 -11.08203125 8.98828125 C-12.43361328 9.64376953 -12.43361328 9.64376953 -13.8125 10.3125 C-14.70582031 10.74175781 -15.59914063 11.17101562 -16.51953125 11.61328125 C-19.0058407 12.85558975 -19.0058407 12.85558975 -20.65625 14.65625 C-22 16 -22 16 -24.6875 16.1875 C-25.8321875 16.0946875 -25.8321875 16.0946875 -27 16 C-22.31849337 11.95643453 -17.10583391 8.90862038 -11.8125 5.75 C-10.44061523 4.91855469 -10.44061523 4.91855469 -9.04101562 4.0703125 C-8.16767578 3.54695312 -7.29433594 3.02359375 -6.39453125 2.484375 C-5.59893799 2.00709961 -4.80334473 1.52982422 -3.98364258 1.03808594 C-2 0 -2 0 0 0 Z " fill="#FDF2E0" transform="translate(730,942)"/>
<path d="M0 0 C1.32 0 2.64 0 4 0 C4 0.66 4 1.32 4 2 C4.86625 2.2475 5.7325 2.495 6.625 2.75 C10 4 10 4 12.9375 6.125 C16.57628798 8.35282937 18.80900705 8.33527944 23 8 C23 8.99 23 9.98 23 11 C23.33 11.99 23.66 12.98 24 14 C18.73202405 11.99839031 14.04578982 9.26697379 9.1875 6.4375 C8.30384766 5.93025391 7.42019531 5.42300781 6.50976562 4.90039062 C5.67509766 4.41634766 4.84042969 3.93230469 3.98046875 3.43359375 C2.83421021 2.76928345 2.83421021 2.76928345 1.66479492 2.09155273 C1.1154126 1.73134033 0.56603027 1.37112793 0 1 C0 0.67 0 0.34 0 0 Z " fill="#FDF3E7" transform="translate(342,211)"/>
<path d="M0 0 C-11.88 6.93 -11.88 6.93 -24 14 C-24.33 13.34 -24.66 12.68 -25 12 C-23.98679687 11.41992188 -23.98679687 11.41992188 -22.953125 10.828125 C-22.06109375 10.30734375 -21.1690625 9.7865625 -20.25 9.25 C-19.36828125 8.73953125 -18.4865625 8.2290625 -17.578125 7.703125 C-14.95331245 6.09501502 -14.95331245 6.09501502 -12.92578125 3.91015625 C-10.95049977 1.95090139 -9.52909891 1.12127456 -6.9375 0.1875 C-5.93009766 -0.19341797 -5.93009766 -0.19341797 -4.90234375 -0.58203125 C-3 -1 -3 -1 0 0 Z " fill="#FDF3E6" transform="translate(803,81)"/>
<path d="M0 0 C4.53847198 1.34927545 8.31932246 3.19159348 12.375 5.625 C13.43460937 6.25664063 14.49421875 6.88828125 15.5859375 7.5390625 C16.38257813 8.02117188 17.17921875 8.50328125 18 9 C14.92605694 9.85709523 13.04352525 10.15444061 10 9 C9.67 8.34 9.34 7.68 9 7 C7.09821215 6.39938767 7.09821215 6.39938767 5 6 C4.01 5.67 3.02 5.34 2 5 C2 4.34 2 3.68 2 3 C1.34 3 0.68 3 0 3 C0 2.01 0 1.02 0 0 Z " fill="#C86A1F" transform="translate(368,533)"/>
<path d="M0 0 C2.49361571 1.20381448 4.68143083 2.45428722 7 4 C4.40251918 5.5333805 1.79812104 7.05179668 -0.8125 8.5625 C-1.55048828 9.00013672 -2.28847656 9.43777344 -3.04882812 9.88867188 C-3.76103516 10.29794922 -4.47324219 10.70722656 -5.20703125 11.12890625 C-6.18893433 11.70233765 -6.18893433 11.70233765 -7.19067383 12.28735352 C-9 13 -9 13 -12 12 C-11.360625 11.87625 -10.72125 11.7525 -10.0625 11.625 C-9.381875 11.41875 -8.70125 11.2125 -8 11 C-7.67 10.34 -7.34 9.68 -7 9 C-4.7427974 7.51685009 -2.3738217 6.29481183 0 5 C-0.66 4.34 -1.32 3.68 -2 3 C-1.34 2.01 -0.68 1.02 0 0 Z " fill="#FCF3E8" transform="translate(468,266)"/>
<path d="M0 0 C2.97 0.495 2.97 0.495 6 1 C4.87204037 5.10899581 3.66489182 9.07561214 2 13 C0.9275 12.979375 -0.145 12.95875 -1.25 12.9375 C-4.14790424 12.9857984 -6.28612141 13.13155885 -9 14 C-5.2064129 10.78119883 -1.34170523 8.3836813 3 6 C2.42655063 3.13275314 2.1385485 2.1385485 0 0 Z " fill="#FDF2E5" transform="translate(896,833)"/>
<path d="M0 0 C0.66 0.33 1.32 0.66 2 1 C1.38125 1.2475 0.7625 1.495 0.125 1.75 C-2.41292362 3.24289625 -2.7414688 4.40427941 -4 7 C-7.49240833 10.62673173 -11.19805918 10.59983826 -16 11 C-13.27587303 7.91460888 -9.90811219 5.88811092 -6.4375 3.75 C-5.84775391 3.37359375 -5.25800781 2.9971875 -4.65039062 2.609375 C-3.13894996 1.6739669 -1.57228969 0.82906354 0 0 Z " fill="#FDF3E6" transform="translate(519,1068)"/>
<path d="M0 0 C3.40202433 1.28924356 6.50564554 2.7652076 9.64453125 4.6015625 C10.48564453 5.09140625 11.32675781 5.58125 12.19335938 6.0859375 C13.05767578 6.59382813 13.92199219 7.10171875 14.8125 7.625 C15.69615234 8.140625 16.57980469 8.65625 17.49023438 9.1875 C19.66194789 10.45531114 21.8317818 11.72622348 24 13 C23.01 13.495 23.01 13.495 22 14 C19.87603961 12.97615721 17.79876934 11.85455012 15.75 10.6875 C11.54054806 8.29664769 7.59829786 6.48730256 3 5 C2.01 4.34 1.02 3.68 0 3 C0 2.01 0 1.02 0 0 Z " fill="#C56B24" transform="translate(304,496)"/>
<path d="M0 0 C3.96 1.98 7.92 3.96 12 6 C7.5 9.375 7.5 9.375 4 10 C4 9.34 4 8.68 4 8 C3.01 8 2.02 8 1 8 C1.66 6.68 2.32 5.36 3 4 C2.01 3.34 1.02 2.68 0 2 C0 1.34 0 0.68 0 0 Z " fill="#FBF4EB" transform="translate(545,831)"/>
<path d="M0 0 C0.66 0.33 1.32 0.66 2 1 C1.01 2.485 1.01 2.485 0 4 C-1.32 4 -2.64 4 -4 4 C-4 4.66 -4 5.32 -4 6 C-5.7578125 6.9765625 -7.515625 7.953125 -9.2734375 8.9296875 C-11.1612614 10.00897274 -11.1612614 10.00897274 -13 12 C-15.625 12.125 -15.625 12.125 -18 12 C-14.28638882 8.91345262 -10.41216557 6.22715693 -6.3125 3.6875 C-5.73177734 3.31560547 -5.15105469 2.94371094 -4.55273438 2.56054688 C-3.07348 1.64221208 -1.53970802 0.81291542 0 0 Z " fill="#FDF3E2" transform="translate(600,1019)"/>
<path d="M0 0 C0.33 0 0.66 0 1 0 C1 7.59 1 15.18 1 23 C-0.98 22.01 -2.96 21.02 -5 20 C-3.68 19.67 -2.36 19.34 -1 19 C-0.67 12.73 -0.34 6.46 0 0 Z " fill="#C46B25" transform="translate(886,695)"/>
<path d="M0 0 C0.66 0.33 1.32 0.66 2 1 C1.21753906 1.48210937 0.43507813 1.96421875 -0.37109375 2.4609375 C-1.88896484 3.40839844 -1.88896484 3.40839844 -3.4375 4.375 C-4.44683594 5.00148438 -5.45617187 5.62796875 -6.49609375 6.2734375 C-9.08011063 7.75816302 -9.08011063 7.75816302 -10 10 C-10.66 10 -11.32 10 -12 10 C-12 10.66 -12 11.32 -12 12 C-12.99 11.67 -13.98 11.34 -15 11 C-15 10.01 -15 9.02 -15 8 C-15.66 8 -16.32 8 -17 8 C-16.67 7.34 -16.34 6.68 -16 6 C-14.93845703 6.35578125 -14.93845703 6.35578125 -13.85546875 6.71875 C-9.94827392 7.10358998 -8.47127123 5.74087455 -5.3125 3.5 C-3.57821544 2.27966445 -1.8140067 1.09833578 0 0 Z " fill="#FEF2E2" transform="translate(471,1097)"/>
<path d="M0 0 C3.40202433 1.28924356 6.50564554 2.7652076 9.64453125 4.6015625 C10.48564453 5.09140625 11.32675781 5.58125 12.19335938 6.0859375 C13.05767578 6.59382812 13.92199219 7.10171875 14.8125 7.625 C15.69615234 8.140625 16.57980469 8.65625 17.49023438 9.1875 C19.66194789 10.45531114 21.8317818 11.72622348 24 13 C20.25537109 14.12988281 20.25537109 14.12988281 17.95703125 12.9609375 C17.24933594 12.43757812 16.54164062 11.91421875 15.8125 11.375 C11.95945511 8.62555903 8.05612924 6.33568538 3.84765625 4.17578125 C2 3 2 3 0 0 Z " fill="#FEF1DC" transform="translate(57,871)"/>
<path d="M0 0 C4.04301175 1.48518799 7.61146256 3.42877998 11.3125 5.625 C12.38113281 6.25664063 13.44976563 6.88828125 14.55078125 7.5390625 C15.76314453 8.26222656 15.76314453 8.26222656 17 9 C16.01 9.33 15.02 9.66 14 10 C13.34 9.67 12.68 9.34 12 9 C10.33380554 8.9603287 8.66608987 8.95615553 7 9 C6.67 7.35 6.34 5.7 6 4 C5.071875 3.7834375 5.071875 3.7834375 4.125 3.5625 C2 3 2 3 0 2 C0 1.34 0 0.68 0 0 Z " fill="#FCF3E7" transform="translate(851,699)"/>
<path d="M0 0 C5.96652354 1.57013777 10.82909025 4.75029782 16 8 C15.01 8.495 15.01 8.495 14 9 C11.96855359 8.06553465 9.96466413 7.06775224 8 6 C7.67 6.99 7.34 7.98 7 9 C5.68 8.67 4.36 8.34 3 8 C3 7.01 3 6.02 3 5 C3.66 5 4.32 5 5 5 C5 4.34 5 3.68 5 3 C2.525 2.01 2.525 2.01 0 1 C0 0.67 0 0.34 0 0 Z " fill="#FCF4E8" transform="translate(352,413)"/>
<path d="M0 0 C1.32 0.66 2.64 1.32 4 2 C1.54732365 3.53068488 -0.91133894 5.04968623 -3.375 6.5625 C-4.07367187 7.00013672 -4.77234375 7.43777344 -5.4921875 7.88867188 C-7.29185903 8.98750978 -9.14322343 10.00067867 -11 11 C-11.66 10.67 -12.32 10.34 -13 10 C-12.67 9.34 -12.34 8.68 -12 8 C-11.34 8.33 -10.68 8.66 -10 9 C-10 8.34 -10 7.68 -10 7 C-9.01 7 -8.02 7 -7 7 C-6.67 6.01 -6.34 5.02 -6 4 C-4.34795544 3.29788106 -2.68076231 2.63028587 -1 2 C-0.67 1.34 -0.34 0.68 0 0 Z " fill="#CA6A1D" transform="translate(635,368)"/>
<path d="M0 0 C1.32 0.66 2.64 1.32 4 2 C1.54732365 3.53068488 -0.91133894 5.04968623 -3.375 6.5625 C-4.07367187 7.00013672 -4.77234375 7.43777344 -5.4921875 7.88867188 C-7.29185903 8.98750978 -9.14322343 10.00067867 -11 11 C-11.66 10.67 -12.32 10.34 -13 10 C-12.67 9.34 -12.34 8.68 -12 8 C-11.34 8.33 -10.68 8.66 -10 9 C-10 8.34 -10 7.68 -10 7 C-9.01 7 -8.02 7 -7 7 C-6.67 6.01 -6.34 5.02 -6 4 C-4.34795544 3.29788106 -2.68076231 2.63028587 -1 2 C-0.67 1.34 -0.34 0.68 0 0 Z " fill="#CA6A1D" transform="translate(715,320)"/>
<path d="M0 0 C1.1446875 0.2784375 1.1446875 0.2784375 2.3125 0.5625 C5.08967375 1.22819173 5.08967375 1.22819173 8 0 C9.32 1.32 10.64 2.64 12 4 C11.67 4.33 11.34 4.66 11 5 C12.65 5.99 14.3 6.98 16 8 C15.01 8.495 15.01 8.495 14 9 C11.54961707 7.75717988 9.226675 6.47117661 6.875 5.0625 C6.21628906 4.67642578 5.55757812 4.29035156 4.87890625 3.89257812 C3.248387 2.93553422 1.62363816 1.96867185 0 1 C0 0.67 0 0.34 0 0 Z " fill="#FCF4E7" transform="translate(800,778)"/>
<path d="M0 0 C5.9799562 0.72484318 10.5120308 3.32126552 14.4375 7.75 C14.953125 8.4925 15.46875 9.235 16 10 C12.26512223 9.5020163 10.18762365 9.12508244 7 7 C6.67 6.01 6.34 5.02 6 4 C2.99992729 2.29144978 2.99992729 2.29144978 0 1 C0 0.67 0 0.34 0 0 Z " fill="#CA7838" transform="translate(659,699)"/>
<path d="M0 0 C1.94113934 0.92994117 3.8777951 1.8692453 5.8125 2.8125 C6.89144531 3.33457031 7.97039062 3.85664062 9.08203125 4.39453125 C11.56579702 5.76110117 13.1799378 6.87340101 15 9 C11.88200997 8.24964259 8.81929597 7.36636589 5.75 6.4375 C4.85796875 6.16808594 3.9659375 5.89867187 3.046875 5.62109375 C2.37140625 5.41613281 1.6959375 5.21117187 1 5 C0.67 3.35 0.34 1.7 0 0 Z " fill="#C76A22" transform="translate(484,599)"/>
<path d="M0 0 C1.32 0.66 2.64 1.32 4 2 C1.880788 3.36405618 -0.24448118 4.71631775 -2.375 6.0625 C-2.97828125 6.45244141 -3.5815625 6.84238281 -4.203125 7.24414062 C-5.76492557 8.22460432 -7.37992214 9.11916075 -9 10 C-9.66 9.67 -10.32 9.34 -11 9 C-10.67 8.34 -10.34 7.68 -10 7 C-9.01 7 -8.02 7 -7 7 C-6.67 6.01 -6.34 5.02 -6 4 C-4.34795544 3.29788106 -2.68076231 2.63028587 -1 2 C-0.67 1.34 -0.34 0.68 0 0 Z " fill="#C96A1D" transform="translate(555,416)"/>
<path d="M0 0 C0.33 0.66 0.66 1.32 1 2 C1.66 2.33 2.32 2.66 3 3 C3.625 5.5625 3.625 5.5625 4 8 C-0.30764815 6.43358249 -4.06171464 4.31663844 -8 2 C-5.3260876 1.10869587 -2.76276177 0.52268466 0 0 Z " fill="#FAF4E8" transform="translate(37,643)"/>
<path d="M0 0 C3.7910119 1.44950455 7.3874638 3.15172566 11 5 C11 5.33 11 5.66 11 6 C9.35 6 7.7 6 6 6 C6 5.34 6 4.68 6 4 C4.02 4.99 2.04 5.98 0 7 C-0.66 5.35 -1.32 3.7 -2 2 C-1.34 1.34 -0.68 0.68 0 0 Z " fill="#FBF4EA" transform="translate(315,392)"/>
<path d="M0 0 C2.29395893 1.28773152 4.58516784 2.57996772 6.875 3.875 C7.52597656 4.23980469 8.17695313 4.60460937 8.84765625 4.98046875 C11.50393354 6.48660536 13.83019001 7.83019001 16 10 C13.36 10 10.72 10 8 10 C7.979375 9.4225 7.95875 8.845 7.9375 8.25 C6.4233745 4.61609879 3.44043825 3.75149584 0 2 C0 1.34 0 0.68 0 0 Z " fill="#C76A20" transform="translate(170,113)"/>
<path d="M0 0 C4.61513112 1.31860889 8.09897612 3.21355437 12 6 C9.41090253 6.95892499 8.18407932 7.0552238 5.5 6.25 C3.08464227 5.04232114 1.08941618 3.70248726 -1 2 C-0.67 1.34 -0.34 0.68 0 0 Z " fill="#FBF4EB" transform="translate(142,921)"/>
<path d="M0 0 C3.3 0.33 6.6 0.66 10 1 C9.67 1.99 9.34 2.98 9 4 C10.423125 4.6496875 10.423125 4.6496875 11.875 5.3125 C15 7 15 7 17 10 C12.97683781 8.51463956 9.38707358 6.60123107 5.6875 4.4375 C4.61886719 3.81746094 3.55023437 3.19742188 2.44921875 2.55859375 C1.64097656 2.04425781 0.83273437 1.52992188 0 1 C0 0.67 0 0.34 0 0 Z " fill="#FEF2DF" transform="translate(774,763)"/>
<path d="M0 0 C4.61513112 1.31860889 8.09897612 3.21355437 12 6 C9.47946405 7.26026798 8.1457902 6.91874445 5.375 6.5625 C4.14910156 6.40974609 4.14910156 6.40974609 2.8984375 6.25390625 C1.95871094 6.12822266 1.95871094 6.12822266 1 6 C0.67 4.02 0.34 2.04 0 0 Z " fill="#C86B20" transform="translate(640,689)"/>
<path d="M0 0 C1.03789581 1.64333504 2.03567924 3.31243867 3 5 C3.99 6.485 3.99 6.485 5 8 C0.22390502 6.35821735 -3.79382904 3.73453298 -8 1 C-3 -1.5 -3 -1.5 0 0 Z " fill="#FDF3E5" transform="translate(129,698)"/>
<path d="M0 0 C0.61875 0.350625 1.2375 0.70125 1.875 1.0625 C2.57625 1.371875 3.2775 1.68125 4 2 C4.66 1.67 5.32 1.34 6 1 C6.33 1.99 6.66 2.98 7 4 C5 6 5 6 1.625 6.3125 C-2.0859611 5.99258956 -3.37243948 5.5224581 -6 3 C-1.25 3.875 -1.25 3.875 1 5 C0.67 3.35 0.34 1.7 0 0 Z " fill="#D47020" transform="translate(792,401)"/>
<path d="M0 0 C2.64 0 5.28 0 8 0 C8.33 1.32 8.66 2.64 9 4 C9.66 4 10.32 4 11 4 C11.33 4.99 11.66 5.98 12 7 C7.69235185 5.43358249 3.93828536 3.31663844 0 1 C0 0.67 0 0.34 0 0 Z " fill="#FCF4E9" transform="translate(108,75)"/>
<path d="M0 0 C0.66 0.33 1.32 0.66 2 1 C-1.85623679 6.66384778 -1.85623679 6.66384778 -5.11328125 7.62109375 C-7.06660622 7.84661084 -9.03482858 7.93338402 -11 8 C-8.83385197 5.69125289 -6.60793392 3.94709819 -3.9375 2.25 C-2.89916016 1.57710937 -2.89916016 1.57710937 -1.83984375 0.890625 C-1.23269531 0.59671875 -0.62554688 0.3028125 0 0 Z " fill="#FDF2E3" transform="translate(822,885)"/>
<path d="M0 0 C3.99500618 1.3697164 6.80009492 3.25722422 10 6 C7.875 6.75 7.875 6.75 5 7 C1.6875 5.0625 1.6875 5.0625 -1 3 C-0.67 2.01 -0.34 1.02 0 0 Z " fill="#CB6A1D" transform="translate(386,543)"/>
<path d="M0 0 C-0.6875 2.4375 -0.6875 2.4375 -2 5 C-5.38336042 6.24650121 -7.60700353 5.93848838 -11 5 C-9.54462432 4.16151196 -8.08559627 3.32936066 -6.625 2.5 C-5.81289063 2.0359375 -5.00078125 1.571875 -4.1640625 1.09375 C-2 0 -2 0 0 0 Z " fill="#CA6A1D" transform="translate(556,840)"/>
<path d="M0 0 C3.63 1.98 7.26 3.96 11 6 C7.48926273 7.17024576 5.58876152 6.67289278 2 6 C1.01 6 0.02 6 -1 6 C-0.34 5.67 0.32 5.34 1 5 C0.67 3.35 0.34 1.7 0 0 Z " fill="#CB6A1E" transform="translate(330,824)"/>
<path d="M0 0 C3.59391114 1.33488128 6.75490696 2.96022723 10 5 C9.67 5.66 9.34 6.32 9 7 C6.9375 7.625 6.9375 7.625 5 8 C5 7.34 5 6.68 5 6 C4.34 6 3.68 6 3 6 C2.01 4.02 1.02 2.04 0 0 Z " fill="#CC7734" transform="translate(861,814)"/>
<path d="M0 0 C2.97 0.495 2.97 0.495 6 1 C6 1.66 6 2.32 6 3 C8.31 3 10.62 3 13 3 C13.33 4.65 13.66 6.3 14 8 C9.02790438 6.23570801 4.56561939 3.6060834 0 1 C0 0.67 0 0.34 0 0 Z " fill="#C66B23" transform="translate(425,761)"/>
<path d="M0 0 C0.598125 0.20625 1.19625 0.4125 1.8125 0.625 C1.8125 1.615 1.8125 2.605 1.8125 3.625 C2.8025 3.625 3.7925 3.625 4.8125 3.625 C6.5 5.125 6.5 5.125 7.8125 6.625 C7.4825 7.285 7.1525 7.945 6.8125 8.625 C2.8525 6.315 -1.1075 4.005 -5.1875 1.625 C-2.1875 -0.375 -2.1875 -0.375 0 0 Z " fill="#FDF4E8" transform="translate(286.1875,792.375)"/>
<path d="M0 0 C3.79049707 1.42749981 7.27122456 3.16236542 10.8125 5.125 C12.27623047 5.93324219 12.27623047 5.93324219 13.76953125 6.7578125 C14.50558594 7.16773438 15.24164063 7.57765625 16 8 C15.01 8.66 14.02 9.32 13 10 C13 9.34 13 8.68 13 8 C12.34 7.95875 11.68 7.9175 11 7.875 C6.6448332 6.60474302 3.39524475 3.96557358 0 1 C0 0.67 0 0.34 0 0 Z " fill="#FEF2E2" transform="translate(438,461)"/>
<path d="M0 0 C2.64 0 5.28 0 8 0 C5 2 5 2 1 2 C1 2.66 1 3.32 1 4 C0.01 4 -0.98 4 -2 4 C-2.33 4.66 -2.66 5.32 -3 6 C-5 4.625 -5 4.625 -7 3 C-7 2.34 -7 1.68 -7 1 C-4.69 1.66 -2.38 2.32 0 3 C0 2.01 0 1.02 0 0 Z " fill="#DF7E2F" transform="translate(799,398)"/>
<path d="M0 0 C-1 3 -1 3 -3 4 C-3.33 4.99 -3.66 5.98 -4 7 C-6.31 6.67 -8.62 6.34 -11 6 C-3.8 0 -3.8 0 0 0 Z " fill="#CA6A1F" transform="translate(518,247)"/>
<path d="M0 0 C1.72990025 0.93614567 3.45888696 1.87397958 5.1875 2.8125 C6.15042969 3.33457031 7.11335938 3.85664062 8.10546875 4.39453125 C10.77398357 5.87463866 13.39374227 7.41337509 16 9 C15.01 9.495 15.01 9.495 14 10 C11.6875 9.00390625 11.6875 9.00390625 9 7.5625 C5.67089005 5.62226989 5.67089005 5.62226989 2 5 C2 4.01 2 3.02 2 2 C1.34 2 0.68 2 0 2 C0 1.34 0 0.68 0 0 Z " fill="#FEF1DD" transform="translate(249,983)"/>
<path d="M0 0 C5.23518706 1.43967644 9.63026009 3.81696611 14 7 C14 7.33 14 7.66 14 8 C11.875 8.3125 11.875 8.3125 9 8 C6.94720004 6.39881603 4.94348501 4.73223664 3 3 C2.01 2.67 1.02 2.34 0 2 C0 1.34 0 0.68 0 0 Z " fill="#FEF1DF" transform="translate(224,969)"/>
<path d="M0 0 C3.79049707 1.42749981 7.27122456 3.16236542 10.8125 5.125 C12.27623047 5.93324219 12.27623047 5.93324219 13.76953125 6.7578125 C14.50558594 7.16773438 15.24164063 7.57765625 16 8 C13 9 13 9 10.1171875 7.890625 C9.04726562 7.34921875 7.97734375 6.8078125 6.875 6.25 C5.79992187 5.71890625 4.72484375 5.1878125 3.6171875 4.640625 C1 3 1 3 0 0 Z " fill="#FEF2DE" transform="translate(154,928)"/>
<path d="M0 0 C1.6875 1.375 1.6875 1.375 3 3 C3 3.66 3 4.32 3 5 C3.66 5 4.32 5 5 5 C5 5.66 5 6.32 5 7 C0.49197399 5.74194623 -2.4912812 4.09592835 -6 1 C-3 0 -3 0 0 0 Z " fill="#CB6A1D" transform="translate(192,625)"/>
<path d="M0 0 C4.30764815 1.56641751 8.06171464 3.68336156 12 6 C10 7 10 7 6.5625 6.375 C2.58121507 4.83836371 1.70379427 3.8084813 0 0 Z " fill="#C56A22" transform="translate(328,510)"/>
<path d="M0 0 C3.63 1.98 7.26 3.96 11 6 C7 9 7 9 5 9 C5 7.35 5 5.7 5 4 C2.525 3.01 2.525 3.01 0 2 C0 1.34 0 0.68 0 0 Z " fill="#CA6B1F" transform="translate(383,237)"/>
<path d="M0 0 C4.60428934 1.31551124 8.18320388 3.09196486 12 6 C12 6.66 12 7.32 12 8 C7.1725201 6.58707905 3.2837641 4.57025846 -1 2 C-0.67 1.34 -0.34 0.68 0 0 Z " fill="#FDF3E7" transform="translate(272,169)"/>
<path d="M0 0 C5.625 -0.25 5.625 -0.25 9 2 C9 2.66 9 3.32 9 4 C9.66 4 10.32 4 11 4 C11 4.66 11 5.32 11 6 C6.49197399 4.74194623 3.5087188 3.09592835 0 0 Z " fill="#C76B21" transform="translate(386,739)"/>
<path d="M0 0 C3.7910119 1.44950455 7.3874638 3.15172566 11 5 C11 5.33 11 5.66 11 6 C8.69 6.33 6.38 6.66 4 7 C2.02 3.535 2.02 3.535 0 0 Z " fill="#FCF3E8" transform="translate(427,455)"/>
<path d="M0 0 C0.66 0.33 1.32 0.66 2 1 C0.26194659 2.36946622 -1.49091233 3.72015954 -3.25 5.0625 C-4.22453125 5.81660156 -5.1990625 6.57070313 -6.203125 7.34765625 C-9 9 -9 9 -11.359375 8.74609375 C-11.90078125 8.49988281 -12.4421875 8.25367188 -13 8 C-10.880788 6.63594382 -8.75551882 5.28368225 -6.625 3.9375 C-6.02171875 3.54755859 -5.4184375 3.15761719 -4.796875 2.75585938 C-3.23507443 1.77539568 -1.62007786 0.88083925 0 0 Z " fill="#FDF2E0" transform="translate(615,1010)"/>
<path d="M0 0 C3.59391114 1.33488128 6.75490696 2.96022723 10 5 C8 6 8 6 4.875 5.0625 C3.92625 4.711875 2.9775 4.36125 2 4 C1.67 4.66 1.34 5.32 1 6 C0 1.125 0 1.125 0 0 Z " fill="#C86A1F" transform="translate(410,872)"/>
<path d="M0 0 C0.33 0.66 0.66 1.32 1 2 C0.67 2.99 0.34 3.98 0 5 C1.32 5 2.64 5 4 5 C4.66 6.32 5.32 7.64 6 9 C2.40608886 7.66511872 -0.75490696 6.03977277 -4 4 C-2.68 2.68 -1.36 1.36 0 0 Z " fill="#C66A21" transform="translate(341,708)"/>
<path d="M0 0 C0 0.66 0 1.32 0 2 C-3.75960806 5.75960806 -6.75900345 6.58894145 -12 7 C-9.20232475 3.70861735 -4.40323273 0 0 0 Z " fill="#C86B21" transform="translate(813,77)"/>
<path d="M0 0 C0.66 0.33 1.32 0.66 2 1 C3.67654729 0.72057545 5.34608154 0.39171753 7 0 C1.30379747 4.74683544 1.30379747 4.74683544 -2 6 C-2.66 5.67 -3.32 5.34 -4 5 C-3.67 4.01 -3.34 3.02 -3 2 C-2.01 2 -1.02 2 0 2 C0 1.34 0 0.68 0 0 Z " fill="#CA6A1E" transform="translate(460,1098)"/>
<path d="M0 0 C2.38564077 0.57584432 4.66682784 1.22227595 7 2 C7.66 1.34 8.32 0.68 9 0 C10 1 10 1 10.0625 3.5625 C10.041875 4.366875 10.02125 5.17125 10 6 C6.40992874 4.66654496 3.20429093 3.1056769 0 1 C0 0.67 0 0.34 0 0 Z " fill="#FBF3E6" transform="translate(687,713)"/>
<path d="M0 0 C-0.33 1.65 -0.66 3.3 -1 5 C-3.64 3.68 -6.28 2.36 -9 1 C-9 0.67 -9 0.34 -9 0 C-5.62182575 -0.84454356 -3.32534757 -1.10844919 0 0 Z " fill="#C96A1D" transform="translate(239,651)"/>
<path d="M0 0 C3.59391114 1.33488128 6.75490696 2.96022723 10 5 C8 6 6 7 4 8 C3.896875 7.4225 3.79375 6.845 3.6875 6.25 C2.90207202 3.67950842 1.69495803 2.06342716 0 0 Z " fill="#FCF3E6" transform="translate(330,1031)"/>
<path d="M0 0 C-0.6875 1.875 -0.6875 1.875 -2 4 C-4.3125 5.0625 -4.3125 5.0625 -7 6 C-8.6829392 6.97236487 -10.35443434 7.96564444 -12 9 C-12.33 8.34 -12.66 7.68 -13 7 C-11.21190303 5.82786955 -9.41940875 4.66244474 -7.625 3.5 C-6.62726562 2.8503125 -5.62953125 2.200625 -4.6015625 1.53125 C-2 0 -2 0 0 0 Z " fill="#FDF2DF" transform="translate(698,961)"/>
<path d="M0 0 C4.77609498 1.64178265 8.79382904 4.26546702 13 7 C12.01 7.495 12.01 7.495 11 8 C6.41252807 6.41240356 2.46293907 4.31014337 0 0 Z " fill="#C36B27" transform="translate(233,767)"/>
<path d="M0 0 C2.91517292 1.07401108 4.77810176 1.77810176 7 4 C4.69 4.33 2.38 4.66 0 5 C-0.5625 3.0625 -0.5625 3.0625 -1 1 C-0.67 0.67 -0.34 0.34 0 0 Z " fill="#CB6A1E" transform="translate(654,697)"/>
<path d="M0 0 C2.81080836 1.14726872 4.1782406 1.94701628 6.0625 4.25 C1.3125 3.375 1.3125 3.375 -0.9375 2.25 C-1.2675 2.91 -1.5975 3.57 -1.9375 4.25 C-2.9275 2.93 -3.9175 1.61 -4.9375 0.25 C-2.9375 -0.75 -2.9375 -0.75 0 0 Z " fill="#CB6B1F" transform="translate(574.9375,650.75)"/>
<path d="M0 0 C3.85478218 -0.35858439 5.57759458 -0.2754818 8.875 1.875 C9.57625 2.57625 10.2775 3.2775 11 4 C11 4.66 11 5.32 11 6 C6.49197399 4.74194623 3.5087188 3.09592835 0 0 Z " fill="#C86A20" transform="translate(156,609)"/>
<path d="M0 0 C3.96 1.98 3.96 1.98 8 4 C5.07735566 5.46132217 3.07536854 6.34099246 0 7 C-0.33 6.34 -0.66 5.68 -1 5 C-0.34 5 0.32 5 1 5 C0.67 3.35 0.34 1.7 0 0 Z " fill="#CB6A1D" transform="translate(458,584)"/>
<path d="M0 0 C0 0.66 0 1.32 0 2 C-6.96428571 5.34821429 -6.96428571 5.34821429 -11 4 C-9.73760288 3.13341385 -8.46472499 2.28207941 -7.1875 1.4375 C-6.47980469 0.96183594 -5.77210938 0.48617188 -5.04296875 -0.00390625 C-3 -1 -3 -1 0 0 Z " fill="#FCF3E6" transform="translate(538,434)"/>
<path d="M0 0 C0.66 0.33 1.32 0.66 2 1 C0.375 3.5 0.375 3.5 -2 6 C-5.25 6.3125 -5.25 6.3125 -8 6 C-5.63404067 3.38499232 -3.13950774 1.61000397 0 0 Z " fill="#C56A21" transform="translate(500,256)"/>
<path d="M0 0 C0.845625 0.515625 1.69125 1.03125 2.5625 1.5625 C6.58736786 3.24562656 8.80214298 2.92352855 13 2 C13 2.66 13 3.32 13 4 C10.37684968 5.31157516 8.76966564 4.89649988 5.875 4.5625 C4.96492188 4.46066406 4.05484375 4.35882812 3.1171875 4.25390625 C2.41851562 4.17011719 1.71984375 4.08632813 1 4 C0.67 2.68 0.34 1.36 0 0 Z " fill="#C36B25" transform="translate(443,891)"/>
<path d="M0 0 C4.30764815 1.56641751 8.06171464 3.68336156 12 6 C10 7 10 7 7.6875 6.9375 C3.79356914 5.57915202 2.44318051 3.2808424 0 0 Z " fill="#C56C25" transform="translate(366,846)"/>
<path d="M0 0 C0.66 0.33 1.32 0.66 2 1 C-1.5231594 5.07944772 -5.83024354 6.11375604 -11 7 C-7.54143152 4.05004453 -4.19978515 1.77324262 0 0 Z " fill="#C56B24" transform="translate(539,848)"/>
<path d="M0 0 C3.96 1.98 3.96 1.98 8 4 C7.01 4.33 6.02 4.66 5 5 C4.67 5.66 4.34 6.32 4 7 C3.01 6.67 2.02 6.34 1 6 C0.67 4.02 0.34 2.04 0 0 Z " fill="#FBF4E9" transform="translate(843,694)"/>
<path d="M0 0 C3.36591866 1.44253657 5.51047079 3.33264727 8 6 C3.75354935 6 1.61475228 4.18249194 -2 2 C-1.34 1.34 -0.68 0.68 0 0 Z " fill="#C86A20" transform="translate(830,682)"/>
<path d="M0 0 C0.66 0.33 1.32 0.66 2 1 C-0.20927127 4.48832306 -2.08597051 5.73058503 -6 7 C-6.66 6.34 -7.32 5.68 -8 5 C-6.71475739 4.13619741 -5.42157581 3.28419631 -4.125 2.4375 C-3.04605469 1.72400391 -3.04605469 1.72400391 -1.9453125 0.99609375 C-1.30335938 0.66738281 -0.66140625 0.33867188 0 0 Z " fill="#FDF1E1" transform="translate(567,1039)"/>
<path d="M0 0 C0.33 0.66 0.66 1.32 1 2 C3.52733235 2.65555119 3.52733235 2.65555119 6 3 C6.33 4.32 6.66 5.64 7 7 C3.48994665 5.3619751 0.54456151 3.96865509 -2 1 C-1.34 0.67 -0.68 0.34 0 0 Z " fill="#CB6B1E" transform="translate(207,954)"/>
<path d="M0 0 C1.65 0 3.3 0 5 0 C5 0.66 5 1.32 5 2 C6.65 2.33 8.3 2.66 10 3 C10.33 3.99 10.66 4.98 11 6 C7.2089881 4.55049545 3.6125362 2.84827434 0 1 C0 0.67 0 0.34 0 0 Z " fill="#C76A1F" transform="translate(378,425)"/>
<path d="M0 0 C-1.28813342 0.83878455 -2.58063256 1.67086783 -3.875 2.5 C-4.59429688 2.9640625 -5.31359375 3.428125 -6.0546875 3.90625 C-8 5 -8 5 -10 5 C-8.94958421 2.13522966 -8.29875437 1.16086774 -5.5625 -0.3125 C-3 -1 -3 -1 0 0 Z " fill="#C56B22" transform="translate(596,396)"/>
<path d="M0 0 C-1.28813342 0.83878455 -2.58063256 1.67086783 -3.875 2.5 C-4.59429688 2.9640625 -5.31359375 3.428125 -6.0546875 3.90625 C-8 5 -8 5 -10 5 C-8.94958421 2.13522966 -8.29875437 1.16086774 -5.5625 -0.3125 C-3 -1 -3 -1 0 0 Z " fill="#C56B22" transform="translate(676,348)"/>
<path d="M0 0 C0.7734375 0.2165625 0.7734375 0.2165625 1.5625 0.4375 C4.68509571 1.15809901 7.82550692 1.57266439 11 2 C10.67 3.32 10.34 4.64 10 6 C6.40992874 4.66654496 3.20429093 3.1056769 0 1 C0 0.67 0 0.34 0 0 Z " fill="#FCF3E8" transform="translate(437,266)"/>
<path d="M0 0 C3.37503669 1.1858237 5.64722731 2.27573689 8 5 C7.67 5.66 7.34 6.32 7 7 C5.68 6.34 4.36 5.68 3 5 C3 4.34 3 3.68 3 3 C2.34 3 1.68 3 1 3 C0.67 2.01 0.34 1.02 0 0 Z " fill="#CA6A1E" transform="translate(367,228)"/>
<path d="M0 0 C-1 3 -1 3 -3.375 4.75 C-6 6 -6 6 -9 5 C-2.87096774 0 -2.87096774 0 0 0 Z " fill="#C96B20" transform="translate(570,217)"/>
<path d="M0 0 C2.97 0.495 2.97 0.495 6 1 C2.80009492 3.74277578 -0.00499382 5.6302836 -4 7 C-4 5 -4 5 -2.5625 3.5 C-2.046875 3.005 -1.53125 2.51 -1 2 C-0.67 1.34 -0.34 0.68 0 0 Z " fill="#FBF3E9" transform="translate(582,203)"/>
<path d="M0 0 C0.66 0.33 1.32 0.66 2 1 C1.67 2.65 1.34 4.3 1 6 C0.01 6 -0.98 6 -2 6 C-1.67 5.67 -1.34 5.34 -1 5 C-2.32 4.34 -3.64 3.68 -5 3 C-2.625 1.4375 -2.625 1.4375 0 0 Z " fill="#CB6B1F" transform="translate(724,127)"/>
<path d="M0 0 C-3.19990508 2.74277578 -6.00499382 4.6302836 -10 6 C-7.09167817 0.84433858 -5.91982852 -0.15578496 0 0 Z " fill="#FEF3E6" transform="translate(756,107)"/>
<path d="M0 0 C-3.96 1.98 -7.92 3.96 -12 6 C-12 5.01 -12 4.02 -12 3 C-11.2575 2.71125 -10.515 2.4225 -9.75 2.125 C-7.05677524 1.08795324 -7.05677524 1.08795324 -4.875 -0.1875 C-3 -1 -3 -1 0 0 Z " fill="#FDF3E5" transform="translate(819,72)"/>
<path d="M0 0 C3.3 1.65 6.6 3.3 10 5 C6.06329512 6.31223496 3.87511856 5.24296256 0 4 C0 2.68 0 1.36 0 0 Z " fill="#FDF2E4" transform="translate(112,903)"/>
<path d="M0 0 C3.99500618 1.3697164 6.80009492 3.25722422 10 6 C5.545 5.01 5.545 5.01 1 4 C0.67 2.68 0.34 1.36 0 0 Z " fill="#C56B24" transform="translate(314,815)"/>
<path d="M0 0 C3.7910119 1.44950455 7.3874638 3.15172566 11 5 C7.59068103 6.13643966 6.99664544 5.86747764 3.8125 4.5625 C3.09707031 4.27503906 2.38164062 3.98757813 1.64453125 3.69140625 C1.10183594 3.46324219 0.55914062 3.23507812 0 3 C0 2.01 0 1.02 0 0 Z " fill="#FDF3E9" transform="translate(279,681)"/>
<path d="M0 0 C0.66 2.31 1.32 4.62 2 7 C-1.37503669 5.8141763 -3.64722731 4.72426311 -6 2 C-1.125 0 -1.125 0 0 0 Z " fill="#C9691E" transform="translate(783,651)"/>
<path d="M0 0 C2.64 0.33 5.28 0.66 8 1 C8.66 2.65 9.32 4.3 10 6 C6.40992874 4.66654496 3.20429093 3.1056769 0 1 C0 0.67 0 0.34 0 0 Z " fill="#C86B21" transform="translate(254,355)"/>
<path d="M0 0 C1.32 1.32 2.64 2.64 4 4 C2.3125 4.6875 2.3125 4.6875 0 5 C-2.75 3.5625 -2.75 3.5625 -5 2 C-4.34 1.67 -3.68 1.34 -3 1 C-2.01 1.33 -1.02 1.66 0 2 C0 1.34 0 0.68 0 0 Z " fill="#CA6B1F" transform="translate(418,753)"/>
<path d="M0 0 C2.31 0.66 4.62 1.32 7 2 C7 2.66 7 3.32 7 4 C8.32 4.33 9.64 4.66 11 5 C10.67 5.66 10.34 6.32 10 7 C8.33073546 6.02526874 6.66464358 5.04510211 5 4.0625 C4.071875 3.51722656 3.14375 2.97195313 2.1875 2.41015625 C1.465625 1.94480469 0.74375 1.47945312 0 1 C0 0.67 0 0.34 0 0 Z " fill="#FDF3E9" transform="translate(175,730)"/>
<path d="M0 0 C3.45925163 1.2491742 6.14693203 2.67527795 9 5 C8.01 5.33 7.02 5.66 6 6 C6 5.34 6 4.68 6 4 C4.35 4 2.7 4 1 4 C0.67 2.68 0.34 1.36 0 0 Z " fill="#C66B24" transform="translate(155,721)"/>
<path d="M0 0 C3.3 1.65 6.6 3.3 10 5 C5.82412255 6.39195915 3.86525224 4.82323219 0 3 C0 2.01 0 1.02 0 0 Z " fill="#C56B23" transform="translate(442,575)"/>
<path d="M0 0 C2.91517292 1.07401108 4.77810176 1.77810176 7 4 C4.35261084 5.4606285 3.10551666 6 0 6 C0.185625 5.38125 0.37125 4.7625 0.5625 4.125 C1.23686176 1.95839822 1.23686176 1.95839822 0 0 Z " fill="#FBF3EA" transform="translate(402,441)"/>
<path d="M0 0 C2.31 0 4.62 0 7 0 C7 0.66 7 1.32 7 2 C7.66 2 8.32 2 9 2 C8.67 2.99 8.34 3.98 8 5 C5.36 3.68 2.72 2.36 0 1 C0 0.67 0 0.34 0 0 Z " fill="#CC6A1E" transform="translate(295,378)"/>
<path d="M0 0 C0.66 0.33 1.32 0.66 2 1 C2.625 3.5625 2.625 3.5625 3 6 C0.08482708 4.92598892 -1.77810176 4.22189824 -4 2 C-2.125 0.9375 -2.125 0.9375 0 0 Z " fill="#CB6A1D" transform="translate(505,802)"/>
<path d="M0 0 C3.45925163 1.2491742 6.14693203 2.67527795 9 5 C8.01 5.495 8.01 5.495 7 6 C4.64018187 5.06421005 2.30368736 4.06652192 0 3 C0 2.01 0 1.02 0 0 Z " fill="#FBF3EA" transform="translate(422,762)"/>
<path d="M0 0 C1.32 0 2.64 0 4 0 C4 0.66 4 1.32 4 2 C5.65 2.33 7.3 2.66 9 3 C8.67 3.99 8.34 4.98 8 6 C6.66402348 5.19185349 5.331275 4.37836819 4 3.5625 C3.2575 3.11003906 2.515 2.65757812 1.75 2.19140625 C1.1725 1.79824219 0.595 1.40507813 0 1 C0 0.67 0 0.34 0 0 Z " fill="#C46B24" transform="translate(397,745)"/>
<path d="M0 0 C2.64 0.33 5.28 0.66 8 1 C8.33 2.32 8.66 3.64 9 5 C5.54074837 3.7508258 2.85306797 2.32472205 0 0 Z " fill="#C76A22" transform="translate(301,691)"/>
<path d="M0 0 C1.32 0 2.64 0 4 0 C4 0.66 4 1.32 4 2 C5.65 2.33 7.3 2.66 9 3 C9.33 3.99 9.66 4.98 10 6 C6.00499382 4.6302836 3.19990508 2.74277578 0 0 Z " fill="#FEF2DF" transform="translate(92,681)"/>
<path d="M0 0 C3.77545388 1.09068668 6.47043472 1.9083091 9 5 C6.69 4.67 4.38 4.34 2 4 C2 3.34 2 2.68 2 2 C1.34 2 0.68 2 0 2 C0 1.34 0 0.68 0 0 Z " fill="#C56B23" transform="translate(558,642)"/>
<path d="M0 0 C2.31 0.33 4.62 0.66 7 1 C7.33 2.32 7.66 3.64 8 5 C5.36 3.68 2.72 2.36 0 1 C0 0.67 0 0.34 0 0 Z " fill="#FBF3E9" transform="translate(509,611)"/>
<path d="M0 0 C0.598125 0.165 1.19625 0.33 1.8125 0.5 C4.11344336 1.1114124 4.11344336 1.1114124 7 1 C9 3 9 3 9 5 C5.22454612 3.90931332 2.52956528 3.0916909 0 0 Z " fill="#C86B22" transform="translate(236,345)"/>
<path d="M0 0 C2.31 0.33 4.62 0.66 7 1 C4.61426621 2.89213369 2.92824652 4.02391783 0 5 C0 3.35 0 1.7 0 0 Z " fill="#FDF5EB" transform="translate(569,210)"/>
<path d="M0 0 C3.7910119 1.44950455 7.3874638 3.15172566 11 5 C8 6 8 6 5.95703125 5.22265625 C5.24933594 4.83980469 4.54164063 4.45695312 3.8125 4.0625 C3.09707031 3.68222656 2.38164062 3.30195312 1.64453125 2.91015625 C1.10183594 2.60980469 0.55914062 2.30945313 0 2 C0 1.34 0 0.68 0 0 Z " fill="#C76C24" transform="translate(155,105)"/>
<path d="M0 0 C7.57142857 1.85714286 7.57142857 1.85714286 10 5 C5.75354935 5 3.61475228 3.18249194 0 1 C0 0.67 0 0.34 0 0 Z " fill="#FDF2E4" transform="translate(79,58)"/>
<path d="M0 0 C3.96 1.98 3.96 1.98 8 4 C4 5 4 5 1 5 C0.67 3.35 0.34 1.7 0 0 Z " fill="#FDF2E3" transform="translate(170,937)"/>
<path d="M0 0 C-0.33 1.32 -0.66 2.64 -1 4 C-3.31 4.33 -5.62 4.66 -8 5 C-3.22727273 0 -3.22727273 0 0 0 Z " fill="#FCF2E2" transform="translate(859,864)"/>
<path d="M0 0 C0.99 0.33 1.98 0.66 3 1 C2.34 1 1.68 1 1 1 C1 2.32 1 3.64 1 5 C-1.91517292 3.92598892 -3.77810176 3.22189824 -6 1 C-3.03 1.495 -3.03 1.495 0 2 C0 1.34 0 0.68 0 0 Z " fill="#C76A21" transform="translate(452,772)"/>
<path d="M0 0 C0 0.66 0 1.32 0 2 C-0.66 2 -1.32 2 -2 2 C-1.67 2.99 -1.34 3.98 -1 5 C-2.98 4.34 -4.96 3.68 -7 3 C-3.375 0 -3.375 0 0 0 Z " fill="#CB6B1F" transform="translate(55,546)"/>
<path d="M0 0 C0.33 1.65 0.66 3.3 1 5 C-1.91517292 3.92598892 -3.77810176 3.22189824 -6 1 C-3.92446352 0.4465236 -2.15634036 0 0 0 Z " fill="#FCF4EB" transform="translate(274,472)"/>
<path d="M0 0 C0.33 0.99 0.66 1.98 1 3 C0.67 3.66 0.34 4.32 0 5 C-4 5 -4 5 -7 4 C-4.69 2.68 -2.38 1.36 0 0 Z " fill="#FCF4E8" transform="translate(499,455)"/>
<path d="M0 0 C-0.33 0.99 -0.66 1.98 -1 3 C-1.66 3 -2.32 3 -3 3 C-3 3.66 -3 4.32 -3 5 C-4.65 5 -6.3 5 -8 5 C-3.22727273 0 -3.22727273 0 0 0 Z " fill="#FBF4E9" transform="translate(622,382)"/>
<path d="M0 0 C-0.33 0.99 -0.66 1.98 -1 3 C-1.66 3 -2.32 3 -3 3 C-3 3.66 -3 4.32 -3 5 C-4.65 5 -6.3 5 -8 5 C-3.22727273 0 -3.22727273 0 0 0 Z " fill="#FBF4E9" transform="translate(702,334)"/>
<path d="M0 0 C6.52307692 1.47692308 6.52307692 1.47692308 8.9375 4.125 C9.288125 4.74375 9.63875 5.3625 10 6 C6.40992874 4.66654496 3.20429093 3.1056769 0 1 C0 0.67 0 0.34 0 0 Z " fill="#FEF3E5" transform="translate(301,187)"/>
<path d="M0 0 C-5.14285714 4.42857143 -5.14285714 4.42857143 -9 5 C-6.81610567 0.16423399 -5.20641855 -0.13701101 0 0 Z " fill="#FCF3E9" transform="translate(659,163)"/>
<path d="M0 0 C2.97 1.65 5.94 3.3 9 5 C5 6 5 6 2.25 4.75 C1.5075 4.1725 0.765 3.595 0 3 C0 2.01 0 1.02 0 0 Z " fill="#C46B21" transform="translate(194,127)"/>
<path d="M0 0 C3.96 1.98 3.96 1.98 8 4 C8 4.33 8 4.66 8 5 C6.02 5 4.04 5 2 5 C2 4.01 2 3.02 2 2 C1.34 2 0.68 2 0 2 C0 1.34 0 0.68 0 0 Z " fill="#C96A1E" transform="translate(42,39)"/>
<path d="M0 0 C0.66 0.33 1.32 0.66 2 1 C-1.28804981 3.91227269 -3.59885603 5.49701212 -8 6 C-5.38485683 3.87961365 -2.80362384 1.86908256 0 0 Z " fill="#FEF2E0" transform="translate(789,905)"/>
<path d="M0 0 C3.45925163 1.2491742 6.14693203 2.67527795 9 5 C5.65626525 4.44271087 2.96687001 3.64826111 0 2 C0 1.34 0 0.68 0 0 Z " fill="#FDF2E1" transform="translate(103,898)"/>
<path d="M0 0 C3.77545388 1.09068668 6.47043472 1.9083091 9 5 C3.48387097 4.38709677 3.48387097 4.38709677 1.125 2.5 C0 1 0 1 0 0 Z " fill="#FDF2E2" transform="translate(89,890)"/>
<path d="M0 0 C3.96 1.98 3.96 1.98 8 4 C8 4.33 8 4.66 8 5 C6.02 5 4.04 5 2 5 C1.34 3.35 0.68 1.7 0 0 Z " fill="#C76B22" transform="translate(779,768)"/>
<path d="M0 0 C2.25 -0.3125 2.25 -0.3125 5 0 C7.3125 2.5 7.3125 2.5 9 5 C5.54074837 3.7508258 2.85306797 2.32472205 0 0 Z " fill="#C46A23" transform="translate(287,683)"/>
<path d="M0 0 C3.59391114 1.33488128 6.75490696 2.96022723 10 5 C9.01 5.495 9.01 5.495 8 6 C6.0546875 5.22265625 6.0546875 5.22265625 3.875 4.0625 C3.15054688 3.68222656 2.42609375 3.30195312 1.6796875 2.91015625 C1.12539063 2.60980469 0.57109375 2.30945313 0 2 C0 1.34 0 0.68 0 0 Z " fill="#FEF3E2" transform="translate(779,657)"/>
<path d="M0 0 C0.66 0.99 1.32 1.98 2 3 C0.02 3.99 -1.96 4.98 -4 6 C-2.25 1.125 -2.25 1.125 0 0 Z " fill="#FAF3EB" transform="translate(528,235)"/>
</svg>
