<?xml version="1.0" encoding="UTF-8"?>
<svg version="1.1" xmlns="http://www.w3.org/2000/svg" width="238" height="81">
<path d="M0 0 C1.0105565 0.98933086 2.00880612 1.99127075 3 3 C5.8658426 4.90861169 8.87521301 6.5617256 11.875 8.25 C12.67808594 8.72179688 13.48117188 9.19359375 14.30859375 9.6796875 C15.09105469 10.12054688 15.87351562 10.56140625 16.6796875 11.015625 C17.38851074 11.42071289 18.09733398 11.82580078 18.82763672 12.24316406 C21.66473341 13.2315884 23.14661133 12.89105053 26 12 C28.51213811 10.79976963 28.51213811 10.79976963 31.01171875 9.27734375 C31.93404297 8.73916016 32.85636719 8.20097656 33.80664062 7.64648438 C34.75732422 7.08251953 35.70800781 6.51855469 36.6875 5.9375 C38.58499967 4.81780997 40.48463491 3.70172855 42.38671875 2.58984375 C43.22420654 2.09347412 44.06169434 1.59710449 44.92456055 1.08569336 C47 0 47 0 49 0 C49 13.86 49 27.72 49 42 C40.43231441 39.1441048 40.43231441 39.1441048 38 37 C37.23954733 34.11274038 37.20945706 31.28646161 37.1875 28.3125 C37.16236328 27.51521484 37.13722656 26.71792969 37.11132812 25.89648438 C37.05249685 23.9315198 37.02337596 21.96570609 37 20 C36.16339844 20.6703125 35.32679687 21.340625 34.46484375 22.03125 C30.88702606 24.62612793 27.4035091 27.14178506 23 28 C17.34228405 26.92357199 12.57321386 23.33063195 8 20 C7.67 21.65 7.34 23.3 7 25 C8.05054565 25.39396973 8.05054565 25.39396973 9.12231445 25.79589844 C12.23136914 27.09681111 15.09834171 28.62620247 18.04296875 30.265625 C18.89572136 30.73944611 18.89572136 30.73944611 19.76570129 31.22283936 C20.96576544 31.89046932 22.16502702 32.55954374 23.36352539 33.22998047 C25.16294133 34.23626608 26.96501238 35.23765116 28.76757812 36.23828125 C32.18863354 38.14085115 35.59477201 40.06923725 39 42 C40.0204541 42.56654297 41.0409082 43.13308594 42.09228516 43.71679688 C43.00671387 44.23822266 43.92114258 44.75964844 44.86328125 45.296875 C45.66677002 45.74901367 46.47025879 46.20115234 47.2980957 46.66699219 C47.85972412 47.10688477 48.42135254 47.54677734 49 48 C49 48.99 49 49.98 49 51 C45.73993348 53.55057546 42.1521609 55.58085339 38.59350586 57.68994141 C36.82569139 58.74214846 35.07603365 59.82061102 33.32617188 60.90234375 C32.21435547 61.56878906 31.10253906 62.23523438 29.95703125 62.921875 C28.42526245 63.84371582 28.42526245 63.84371582 26.86254883 64.78417969 C23.54461882 66.19341563 22.35552666 66.19375787 19 65 C16.42871094 63.70898437 16.42871094 63.70898437 13.734375 62.09375 C12.76242188 61.51496094 11.79046875 60.93617187 10.7890625 60.33984375 C9.78617188 59.73269531 8.78328125 59.12554687 7.75 58.5 C6.22246094 57.58927734 6.22246094 57.58927734 4.6640625 56.66015625 C-2.82075374 52.17924626 -2.82075374 52.17924626 -4 51 C-4.07271741 48.64686445 -4.08370868 46.29166332 -4.0625 43.9375 C-4.05347656 42.64714844 -4.04445313 41.35679688 -4.03515625 40.02734375 C-4.02355469 39.02832031 -4.01195312 38.02929688 -4 37 C-2.45719566 37.8312252 -0.91586269 38.66518102 0.625 39.5 C1.62015625 40.03625 2.6153125 40.5725 3.640625 41.125 C6.0269663 42.45691142 8.3504024 43.81464155 10.671875 45.25 C11.28724121 45.62318359 11.90260742 45.99636719 12.53662109 46.38085938 C13.7465605 47.11742806 14.94783013 47.86846311 16.13916016 48.63476562 C18.02296051 49.82271547 18.02296051 49.82271547 21 51 C23.66974605 50.14989679 23.66974605 50.14989679 26 49 C25.19780029 48.5560791 24.39560059 48.1121582 23.5690918 47.65478516 C20.58853943 46.00460902 17.60863125 44.35328132 14.62915039 42.70117188 C13.34034381 41.98684276 12.05128338 41.27297143 10.76196289 40.55957031 C8.9070423 39.53310944 7.05304567 38.50499696 5.19921875 37.4765625 C3.52605591 36.549646 3.52605591 36.549646 1.8190918 35.60400391 C-0.16396796 34.47568464 -2.10160648 33.26559568 -4 32 C-4.34057617 29.11083984 -4.34057617 29.11083984 -4.29296875 25.4609375 C-4.28330078 24.15898438 -4.27363281 22.85703125 -4.26367188 21.515625 C-4.23860388 20.13541077 -4.21320902 18.75520244 -4.1875 17.375 C-4.17245517 15.98699337 -4.15876641 14.59897133 -4.14648438 13.2109375 C-4.1110257 9.80690491 -4.06160298 6.40364378 -4 3 C-4.99 3 -5.98 3 -7 3 C-7 2.34 -7 1.68 -7 1 C-2.25 0 -2.25 0 0 0 Z " fill="#D67528" transform="translate(10,10)"/>
<path d="M0 0 C2.97 0 5.94 0 9 0 C9.99 3.3 10.98 6.6 12 10 C14.18975773 6.71536341 14.99806563 3.79303725 16 0 C18.97 0 21.94 0 25 0 C25 8.58 25 17.16 25 26 C23.02 26 21.04 26 19 26 C18.67 22.04 18.34 18.08 18 14 C17.01 16.31 16.02 18.62 15 21 C13.35 21 11.7 21 10 21 C9.01 18.69 8.02 16.38 7 14 C6.67 17.96 6.34 21.92 6 26 C4.02 26 2.04 26 0 26 C0 17.42 0 8.84 0 0 Z " fill="#D98342" transform="translate(146,11)"/>
<path d="M0 0 C1.051875 -0.00773438 2.10375 -0.01546875 3.1875 -0.0234375 C6.39937837 0.4315786 7.07042878 0.85740888 9 3.375 C9.38818359 5.50390625 9.38818359 5.50390625 9.3984375 7.9375 C9.40423828 9.25621094 9.40423828 9.25621094 9.41015625 10.6015625 C9.39855469 11.51679688 9.38695313 12.43203125 9.375 13.375 C9.38660156 14.29023438 9.39820312 15.20546875 9.41015625 16.1484375 C9.40628906 17.02757813 9.40242188 17.90671875 9.3984375 18.8125 C9.39505371 19.61558594 9.39166992 20.41867188 9.38818359 21.24609375 C8.90631313 23.88880469 8.12868458 24.77644035 6 26.375 C3.1875 26.7734375 3.1875 26.7734375 0 26.75 C-1.051875 26.75773437 -2.10375 26.76546875 -3.1875 26.7734375 C-6.39937837 26.3184214 -7.07042878 25.89259112 -9 23.375 C-9.38818359 21.24609375 -9.38818359 21.24609375 -9.3984375 18.8125 C-9.40230469 17.93335937 -9.40617187 17.05421875 -9.41015625 16.1484375 C-9.39855469 15.23320312 -9.38695313 14.31796875 -9.375 13.375 C-9.39240234 12.00214844 -9.39240234 12.00214844 -9.41015625 10.6015625 C-9.40628906 9.72242188 -9.40242188 8.84328125 -9.3984375 7.9375 C-9.39336182 6.73287109 -9.39336182 6.73287109 -9.38818359 5.50390625 C-8.4180559 0.18345749 -4.77106553 -0.03508136 0 0 Z M-3 5.375 C-3 10.655 -3 15.935 -3 21.375 C-1.02 21.375 0.96 21.375 3 21.375 C3 16.095 3 10.815 3 5.375 C1.02 5.375 -0.96 5.375 -3 5.375 Z " fill="#803EE6" transform="translate(97,10.625)"/>
<path d="M0 0 C1.98 0 3.96 0 6 0 C6 3.3 6 6.6 6 10 C8.31 10 10.62 10 13 10 C13 6.7 13 3.4 13 0 C14.98 0 16.96 0 19 0 C19 8.58 19 17.16 19 26 C17.02 26 15.04 26 13 26 C13 22.37 13 18.74 13 15 C10.69 15 8.38 15 6 15 C6 18.63 6 22.26 6 26 C4.02 26 2.04 26 0 26 C0 17.42 0 8.84 0 0 Z " fill="#D87F3C" transform="translate(215,11)"/>
<path d="M0 0 C1.06089844 -0.04898437 2.12179688 -0.09796875 3.21484375 -0.1484375 C6.0625 0.375 6.0625 0.375 7.9609375 2.75390625 C9.15055868 5.58452971 9.19907241 6.58523135 8.0625 9.375 C5.625 9 5.625 9 3.0625 8.375 C2.7325 7.715 2.4025 7.055 2.0625 6.375 C0.4125 6.375 -1.2375 6.375 -2.9375 6.375 C-2.9375 7.365 -2.9375 8.355 -2.9375 9.375 C-2.23882812 9.55675781 -1.54015625 9.73851562 -0.8203125 9.92578125 C0.08976562 10.17714844 0.99984375 10.42851562 1.9375 10.6875 C3.29488281 11.05294922 3.29488281 11.05294922 4.6796875 11.42578125 C7.0625 12.375 7.0625 12.375 9.0625 15.375 C9.38229549 18.89275039 9.57134404 21.39899197 7.91796875 24.5703125 C6.0625 26.375 6.0625 26.375 3.25 26.87109375 C2.198125 26.85175781 1.14625 26.83242188 0.0625 26.8125 C-0.989375 26.81121094 -2.04125 26.80992188 -3.125 26.80859375 C-5.9375 26.375 -5.9375 26.375 -7.80078125 25.046875 C-9.50616773 22.53860897 -9.13395458 20.32181868 -8.9375 17.375 C-7.2875 17.375 -5.6375 17.375 -3.9375 17.375 C-3.6075 18.365 -3.2775 19.355 -2.9375 20.375 C-0.9575 20.705 1.0225 21.035 3.0625 21.375 C2.95098698 19.38329404 2.95098698 19.38329404 2.0625 17.375 C-0.20341731 16.52720499 -0.20341731 16.52720499 -2.875 16.125 C-7.59508074 14.89602333 -7.59508074 14.89602333 -9.11328125 12.5859375 C-10.05216887 9.1752845 -10.06648499 6.8801912 -9.1875 3.4375 C-6.92176077 -0.30096972 -4.09987559 0.1292082 0 0 Z " fill="#7F3DE6" transform="translate(74.9375,10.625)"/>
<path d="M0 0 C1.051875 -0.00773438 2.10375 -0.01546875 3.1875 -0.0234375 C6 0.375 6 0.375 7.86328125 1.66796875 C9.70209564 4.4293498 9.18179226 7.1633367 9 10.375 C7.35 10.375 5.7 10.375 4 10.375 C3.67 8.725 3.34 7.075 3 5.375 C1.02 5.375 -0.96 5.375 -3 5.375 C-3 10.655 -3 15.935 -3 21.375 C-1.02 21.375 0.96 21.375 3 21.375 C3.33 19.725 3.66 18.075 4 16.375 C5.65 16.375 7.3 16.375 9 16.375 C9.36518465 22.82659555 9.36518465 22.82659555 7.86328125 25.08203125 C5.21291056 26.92117737 3.19687673 26.77350645 0 26.75 C-1.051875 26.75773437 -2.10375 26.76546875 -3.1875 26.7734375 C-6.39937837 26.3184214 -7.07042878 25.89259112 -9 23.375 C-9.38818359 21.24609375 -9.38818359 21.24609375 -9.3984375 18.8125 C-9.40230469 17.93335937 -9.40617188 17.05421875 -9.41015625 16.1484375 C-9.39855469 15.23320312 -9.38695312 14.31796875 -9.375 13.375 C-9.39240234 12.00214844 -9.39240234 12.00214844 -9.41015625 10.6015625 C-9.40628906 9.72242188 -9.40242187 8.84328125 -9.3984375 7.9375 C-9.39336182 6.73287109 -9.39336182 6.73287109 -9.38818359 5.50390625 C-8.4180559 0.18345749 -4.77106553 -0.03508136 0 0 Z " fill="#D9813E" transform="translate(203,10.625)"/>
<path d="M0 0 C5.28 0 10.56 0 16 0 C15.67 1.65 15.34 3.3 15 5 C12.03 5 9.06 5 6 5 C6 6.65 6 8.3 6 10 C8.64 10 11.28 10 14 10 C14 11.65 14 13.3 14 15 C11.36 15 8.72 15 6 15 C6 16.98 6 18.96 6 21 C8.97 21 11.94 21 15 21 C15.33 22.65 15.66 24.3 16 26 C10.72 26 5.44 26 0 26 C0 17.42 0 8.84 0 0 Z " fill="#D87E39" transform="translate(175,11)"/>
<path d="M0 0 C4.95 0 9.9 0 15 0 C15 1.65 15 3.3 15 5 C12.03 5 9.06 5 6 5 C6 6.98 6 8.96 6 11 C8.64 11 11.28 11 14 11 C14 12.65 14 14.3 14 16 C11.36 16 8.72 16 6 16 C6 19.3 6 22.6 6 26 C4.02 26 2.04 26 0 26 C0 17.42 0 8.84 0 0 Z " fill="#7F3CE6" transform="translate(110,11)"/>
<path d="M0 0 C5.94 0 11.88 0 18 0 C17.67 1.65 17.34 3.3 17 5 C15.35 5 13.7 5 12 5 C12 11.93 12 18.86 12 26 C10.02 26 8.04 26 6 26 C6 19.07 6 12.14 6 5 C4.02 5 2.04 5 0 5 C0 3.35 0 1.7 0 0 Z " fill="#8140E7" transform="translate(126,11)"/>
<path d="M0 0 C5.45295207 2.72647604 6.24838564 5.64963874 9 11 C9.33 7.37 9.66 3.74 10 0 C10.66 0 11.32 0 12 0 C12 6.27 12 12.54 12 19 C7.18088483 17.39362828 6.29335557 13.4007634 4 9 C3.67 12.3 3.34 15.6 3 19 C2.01 19 1.02 19 0 19 C0 12.73 0 6.46 0 0 Z " fill="#AF8DEE" transform="translate(199,46)"/>
<path d="M0 0 C2.34616073 2.27604558 2.95622679 3.64934365 3.36328125 6.91015625 C3.34652344 7.95042969 3.32976562 8.99070312 3.3125 10.0625 C3.30863281 11.10535156 3.30476562 12.14820313 3.30078125 13.22265625 C3 16 3 16 1 19 C-1.09375 19.3984375 -1.09375 19.3984375 -3.5 19.375 C-4.2940625 19.38273437 -5.088125 19.39046875 -5.90625 19.3984375 C-6.5971875 19.26695313 -7.288125 19.13546875 -8 19 C-10.37184142 15.44223788 -10.29824394 13.71979393 -10.3125 9.5 C-10.32925781 8.3553125 -10.34601563 7.210625 -10.36328125 6.03125 C-10 3 -10 3 -8.69921875 1.12109375 C-5.80063843 -0.79130292 -3.3462645 -0.41828306 0 0 Z M-7 3 C-7.02685938 5.14576637 -7.04633088 7.29162645 -7.0625 9.4375 C-7.07410156 10.63246094 -7.08570313 11.82742187 -7.09765625 13.05859375 C-7.33901792 15.88873341 -7.33901792 15.88873341 -6 17 C-3.5 17.16666667 -3.5 17.16666667 -1 17 C0.30547755 15.91830354 0.30547755 15.91830354 0.1328125 13.3125 C0.13023437 12.219375 0.12765625 11.12625 0.125 10 C0.12886719 8.3603125 0.12886719 8.3603125 0.1328125 6.6875 C0.30547755 4.08169646 0.30547755 4.08169646 -1 3 C-2.99958364 2.95919217 -5.00045254 2.95745644 -7 3 Z " fill="#A37AEC" transform="translate(187,46)"/>
<path d="M0 0 C3.125 0.375 3.125 0.375 5.5 2.25 C7.125 4.375 7.125 4.375 7.125 6.375 C6.135 6.375 5.145 6.375 4.125 6.375 C3.795 5.715 3.465 5.055 3.125 4.375 C1.475 4.375 -0.175 4.375 -1.875 4.375 C-1.875 5.365 -1.875 6.355 -1.875 7.375 C-1.30910156 7.52195312 -0.74320313 7.66890625 -0.16015625 7.8203125 C2.09392654 8.50961023 4.07370197 9.20899902 6.125 10.375 C7.25 13.375 7.25 13.375 7.125 16.375 C6.465 17.365 5.805 18.355 5.125 19.375 C3.03125 19.7734375 3.03125 19.7734375 0.625 19.75 C-0.1690625 19.75773437 -0.963125 19.76546875 -1.78125 19.7734375 C-2.4721875 19.64195313 -3.163125 19.51046875 -3.875 19.375 C-5.875 16.375 -5.875 16.375 -5.875 13.375 C-4.885 13.375 -3.895 13.375 -2.875 13.375 C-2.875 14.365 -2.875 15.355 -2.875 16.375 C-0.565 16.375 1.745 16.375 4.125 16.375 C4.125 15.055 4.125 13.735 4.125 12.375 C2.84625 12.106875 1.5675 11.83875 0.25 11.5625 C-3.37175855 10.80309901 -3.67551868 10.67422197 -5.875 7.375 C-5.44218341 2.93862997 -4.74868586 0.61939381 0 0 Z " fill="#9F73EC" transform="translate(225.875,45.625)"/>
<path d="M0 0 C0.99 0.66 1.98 1.32 3 2 C3 3.32 3 4.64 3 6 C2.01 5.67 1.02 5.34 0 5 C0 4.34 0 3.68 0 3 C-1.98 3 -3.96 3 -6 3 C-6.04289755 4.93109581 -6.04289755 4.93109581 -5 7 C-1.545183 8.73068271 -1.545183 8.73068271 2 10 C3 11 3 11 3.125 14.5 C3 18 3 18 2 19 C0.00390625 19.16796875 0.00390625 19.16796875 -2.4375 19.1875 C-3.64212891 19.20876953 -3.64212891 19.20876953 -4.87109375 19.23046875 C-7 19 -7 19 -9 17 C-9 15.68 -9 14.36 -9 13 C-8.01 13 -7.02 13 -6 13 C-5.67 13.99 -5.34 14.98 -5 16 C-3.35 15.67 -1.7 15.34 0 15 C-0.33 14.01 -0.66 13.02 -1 12 C-4.51190809 10.77030122 -4.51190809 10.77030122 -8 10 C-9.32850242 3.59903382 -9.32850242 3.59903382 -7.9375 1.0625 C-5.16247021 -0.45929053 -3.11454177 -0.32443143 0 0 Z " fill="#9E71EC" transform="translate(75,46)"/>
<path d="M0 0 C2 2 2 2 2.1953125 5.6953125 C2.182009 7.17200108 2.15814835 8.64862358 2.125 10.125 C2.11597656 10.87910156 2.10695313 11.63320313 2.09765625 12.41015625 C2.0740687 14.27357254 2.03819719 16.13682593 2 18 C-0.22890995 19.11445498 -1.53055106 19.16480286 -4 19.1875 C-5.051875 19.20876953 -5.051875 19.20876953 -6.125 19.23046875 C-8 19 -8 19 -10 17 C-10.30078125 13.84765625 -10.30078125 13.84765625 -10.3125 10.0625 C-10.32925781 8.81597656 -10.34601563 7.56945313 -10.36328125 6.28515625 C-10 3 -10 3 -8.703125 1.078125 C-5.8631237 -0.71967399 -3.25142916 -0.29558447 0 0 Z M-7 3 C-7 7.29 -7 11.58 -7 16 C-4.525 16.495 -4.525 16.495 -2 17 C0.26150753 15.16584415 0.26150753 15.16584415 0.23046875 12.43359375 C0.21628906 11.44488281 0.20210937 10.45617187 0.1875 9.4375 C0.18105469 8.44621094 0.17460938 7.45492187 0.16796875 6.43359375 C0.27125434 4.05234128 0.27125434 4.05234128 -1 3 C-2.98 3 -4.96 3 -7 3 Z " fill="#9563EA" transform="translate(97,46)"/>
<path d="M0 0 C0.66 0 1.32 0 2 0 C2.33 5.28 2.66 10.56 3 16 C4.98 16 6.96 16 9 16 C9 10.72 9 5.44 9 0 C9.99 0.33 10.98 0.66 12 1 C12.054138 3.24973447 12.09285491 5.49984383 12.125 7.75 C12.14820313 9.00296875 12.17140625 10.2559375 12.1953125 11.546875 C12.01537302 14.72820492 11.68998582 16.36521896 10 19 C8.54257537 19.08096803 7.08387193 19.13917774 5.625 19.1875 C4.81289062 19.22230469 4.00078125 19.25710937 3.1640625 19.29296875 C2.44992188 19.19628906 1.73578125 19.09960938 1 19 C-1.43929003 15.34106495 -1.26289673 12.59721667 -1.1875 8.375 C-1.18685547 7.68148437 -1.18621094 6.98796875 -1.18554688 6.2734375 C-1.14043257 1.14043257 -1.14043257 1.14043257 0 0 Z " fill="#A47AED" transform="translate(127,46)"/>
<path d="M0 0 C0.66 0 1.32 0 2 0 C2 5.61 2 11.22 2 17 C4.64 17 7.28 17 10 17 C10 17.66 10 18.32 10 19 C6.37 19 2.74 19 -1 19 C-1.02683987 16.02077407 -1.04676037 13.04178705 -1.0625 10.0625 C-1.07087891 9.21236328 -1.07925781 8.36222656 -1.08789062 7.48632812 C-1.09111328 6.67744141 -1.09433594 5.86855469 -1.09765625 5.03515625 C-1.10289307 4.2862915 -1.10812988 3.53742676 -1.11352539 2.76586914 C-1 1 -1 1 0 0 Z " fill="#9D6FEB" transform="translate(109,46)"/>
<path d="M0 0 C3.3 0 6.6 0 10 0 C10.33 0.99 10.66 1.98 11 3 C9.35 3 7.7 3 6 3 C6 8.28 6 13.56 6 19 C5.34 19 4.68 19 4 19 C4 13.72 4 8.44 4 3 C2.35 3 0.7 3 -1 3 C-0.67 2.01 -0.34 1.02 0 0 Z " fill="#8D53E9" transform="translate(147,46)"/>
<path d="M0 0 C0.66 0 1.32 0 2 0 C2.33 3.96 2.66 7.92 3 12 C5.31 12 7.62 12 10 12 C10 8.37 10 4.74 10 1 C10.33 1 10.66 1 11 1 C11.02685938 3.14576637 11.04633088 5.29162645 11.0625 7.4375 C11.07410156 8.63246094 11.08570313 9.82742187 11.09765625 11.05859375 C11 14 11 14 10 15 C8.50261876 15.0979057 7.00057108 15.12974864 5.5 15.125 C4.6853125 15.12757812 3.870625 15.13015625 3.03125 15.1328125 C1 15 1 15 0 14 C-0.07271741 11.64686445 -0.08370868 9.29166332 -0.0625 6.9375 C-0.05347656 5.64714844 -0.04445312 4.35679688 -0.03515625 3.02734375 C-0.02355469 2.02832031 -0.01195312 1.02929688 0 0 Z " fill="#8345E7" transform="translate(178,50)"/>
<path d="M0 0 C0.66 0 1.32 0 2 0 C2.33 5.28 2.66 10.56 3 16 C4.98 16.33 6.96 16.66 9 17 C9 17.33 9 17.66 9 18 C6.03 18 3.06 18 0 18 C-1.52491129 14.95017742 -1.14361434 11.77877461 -1.125 8.4375 C-1.12886719 7.73947266 -1.13273437 7.04144531 -1.13671875 6.32226562 C-1.12663994 1.12663994 -1.12663994 1.12663994 0 0 Z " fill="#9A6AEB" transform="translate(127,46)"/>
<path d="M0 0 C0.66 0 1.32 0 2 0 C2 6.27 2 12.54 2 19 C1.01 19 0.02 19 -1 19 C-1.02683987 16.02077407 -1.04676037 13.04178705 -1.0625 10.0625 C-1.07087891 9.21236328 -1.07925781 8.36222656 -1.08789062 7.48632812 C-1.09111328 6.67744141 -1.09433594 5.86855469 -1.09765625 5.03515625 C-1.10289307 4.2862915 -1.10812988 3.53742676 -1.11352539 2.76586914 C-1 1 -1 1 0 0 Z " fill="#9660EA" transform="translate(166,46)"/>
<path d="M0 0 C0.99 0.33 1.98 0.66 3 1 C3.04241723 3.33294775 3.04092937 5.66702567 3 8 C1.41105928 9.58894072 -0.24801424 9.16998411 -2.4375 9.1875 C-3.64212891 9.20876953 -3.64212891 9.20876953 -4.87109375 9.23046875 C-7 9 -7 9 -9 7 C-9 5.68 -9 4.36 -9 3 C-8.01 3 -7.02 3 -6 3 C-5.67 3.99 -5.34 4.98 -5 6 C-3.35 5.67 -1.7 5.34 0 5 C0 3.35 0 1.7 0 0 Z " fill="#9B6CEB" transform="translate(75,56)"/>
<path d="M0 0 C0.66 0 1.32 0 2 0 C2 6.27 2 12.54 2 19 C1.01 18.67 0.02 18.34 -1 18 C-1.33 16.35 -1.66 14.7 -2 13 C-1.34 13 -0.68 13 0 13 C0 8.71 0 4.42 0 0 Z " fill="#7730E5" transform="translate(209,46)"/>
<path d="M0 0 C-0.33 0.99 -0.66 1.98 -1 3 C-3.64 3.33 -6.28 3.66 -9 4 C-9 7.96 -9 11.92 -9 16 C-9.33 16 -9.66 16 -10 16 C-10.0810206 13.89646505 -10.13919907 11.79204048 -10.1875 9.6875 C-10.22230469 8.51574219 -10.25710937 7.34398437 -10.29296875 6.13671875 C-10 3 -10 3 -8.71875 1.09375 C-5.93713336 -0.67636968 -3.19765855 -0.18099954 0 0 Z " fill="#C5ACF3" transform="translate(187,46)"/>
<path d="M0 0 C0.66 0 1.32 0 2 0 C2 4.62 2 9.24 2 14 C0.68 13.34 -0.64 12.68 -2 12 C-1.67 11.67 -1.34 11.34 -1 11 C-0.76636119 9.15108054 -0.58696365 7.29511969 -0.4375 5.4375 C-0.35371094 4.42558594 -0.26992187 3.41367187 -0.18359375 2.37109375 C-0.12300781 1.58863281 -0.06242187 0.80617187 0 0 Z " fill="#7A34E6" transform="translate(97,50)"/>
<path d="M0 0 C0.99 0.33 1.98 0.66 3 1 C2.34 6.28 1.68 11.56 1 17 C0.67 17 0.34 17 0 17 C0 11.39 0 5.78 0 0 Z " fill="#752CE5" transform="translate(200,47)"/>
<path d="M0 0 C0.99 0.33 1.98 0.66 3 1 C3 3.31 3 5.62 3 8 C1.68 7.34 0.36 6.68 -1 6 C-0.67 5.01 -0.34 4.02 0 3 C0 2.01 0 1.02 0 0 Z " fill="#8D53E9" transform="translate(75,56)"/>
<path d="M0 0 C2.31 0 4.62 0 7 0 C7.66 1.32 8.32 2.64 9 4 C6.36 3.67 3.72 3.34 1 3 C0.67 2.01 0.34 1.02 0 0 Z " fill="#B798F0" transform="translate(90,46)"/>
<path d="M0 0 C2.31 0 4.62 0 7 0 C7.66 1.65 8.32 3.3 9 5 C8.01 5 7.02 5 6 5 C5.67 3.68 5.34 2.36 5 1 C3.35 1 1.7 1 0 1 C0 0.67 0 0.34 0 0 Z " fill="#8A4FE8" transform="translate(224,47)"/>
</svg>
