<?xml version="1.0" encoding="UTF-8"?>
<svg version="1.1" xmlns="http://www.w3.org/2000/svg" width="58" height="69">
<path d="M0 0 C1.0105565 0.98933086 2.00880612 1.99127075 3 3 C5.8658426 4.90861169 8.87521301 6.5617256 11.875 8.25 C12.67808594 8.72179688 13.48117188 9.19359375 14.30859375 9.6796875 C15.09105469 10.12054688 15.87351562 10.56140625 16.6796875 11.015625 C17.38851074 11.42071289 18.09733398 11.82580078 18.82763672 12.24316406 C21.66473341 13.2315884 23.14661133 12.89105053 26 12 C28.51213811 10.79976963 28.51213811 10.79976963 31.01171875 9.27734375 C31.93404297 8.73916016 32.85636719 8.20097656 33.80664062 7.64648438 C34.75732422 7.08251953 35.70800781 6.51855469 36.6875 5.9375 C38.58499967 4.81780997 40.48463491 3.70172855 42.38671875 2.58984375 C43.22420654 2.09347412 44.06169434 1.59710449 44.92456055 1.08569336 C47 0 47 0 49 0 C49 13.86 49 27.72 49 42 C40.43231441 39.1441048 40.43231441 39.1441048 38 37 C37.23954733 34.11274038 37.20945706 31.28646161 37.1875 28.3125 C37.16236328 27.51521484 37.13722656 26.71792969 37.11132812 25.89648438 C37.05249685 23.9315198 37.02337596 21.96570609 37 20 C36.16339844 20.6703125 35.32679687 21.340625 34.46484375 22.03125 C30.88702606 24.62612793 27.4035091 27.14178506 23 28 C17.34228405 26.92357199 12.57321386 23.33063195 8 20 C7.67 21.65 7.34 23.3 7 25 C8.05054565 25.39396973 8.05054565 25.39396973 9.12231445 25.79589844 C12.23136914 27.09681111 15.09834171 28.62620247 18.04296875 30.265625 C18.89572136 30.73944611 18.89572136 30.73944611 19.76570129 31.22283936 C20.96576544 31.89046932 22.16502702 32.55954374 23.36352539 33.22998047 C25.16294133 34.23626608 26.96501238 35.23765116 28.76757812 36.23828125 C32.18863354 38.14085115 35.59477201 40.06923725 39 42 C40.0204541 42.56654297 41.0409082 43.13308594 42.09228516 43.71679688 C43.00671387 44.23822266 43.92114258 44.75964844 44.86328125 45.296875 C45.66677002 45.74901367 46.47025879 46.20115234 47.2980957 46.66699219 C47.85972412 47.10688477 48.42135254 47.54677734 49 48 C49 48.99 49 49.98 49 51 C45.73993348 53.55057546 42.1521609 55.58085339 38.59350586 57.68994141 C36.82569139 58.74214846 35.07603365 59.82061102 33.32617188 60.90234375 C32.21435547 61.56878906 31.10253906 62.23523437 29.95703125 62.921875 C28.42526245 63.84371582 28.42526245 63.84371582 26.86254883 64.78417969 C23.54461882 66.19341563 22.35552666 66.19375787 19 65 C16.42871094 63.70898437 16.42871094 63.70898437 13.734375 62.09375 C12.76242188 61.51496094 11.79046875 60.93617187 10.7890625 60.33984375 C9.78617188 59.73269531 8.78328125 59.12554687 7.75 58.5 C6.22246094 57.58927734 6.22246094 57.58927734 4.6640625 56.66015625 C-2.82075374 52.17924626 -2.82075374 52.17924626 -4 51 C-4.07271741 48.64686445 -4.08370868 46.29166332 -4.0625 43.9375 C-4.05347656 42.64714844 -4.04445313 41.35679688 -4.03515625 40.02734375 C-4.02355469 39.02832031 -4.01195312 38.02929688 -4 37 C-2.45719566 37.8312252 -0.91586269 38.66518102 0.625 39.5 C1.62015625 40.03625 2.6153125 40.5725 3.640625 41.125 C6.0269663 42.45691142 8.3504024 43.81464155 10.671875 45.25 C11.28724121 45.62318359 11.90260742 45.99636719 12.53662109 46.38085938 C13.7465605 47.11742806 14.94783013 47.86846311 16.13916016 48.63476562 C18.02296051 49.82271547 18.02296051 49.82271547 21 51 C23.66974605 50.14989679 23.66974605 50.14989679 26 49 C25.19780029 48.5560791 24.39560059 48.1121582 23.5690918 47.65478516 C20.58853943 46.00460902 17.60863125 44.35328132 14.62915039 42.70117188 C13.34034381 41.98684276 12.05128338 41.27297143 10.76196289 40.55957031 C8.9070423 39.53310944 7.05304567 38.50499696 5.19921875 37.4765625 C3.52605591 36.549646 3.52605591 36.549646 1.8190918 35.60400391 C-0.16396796 34.47568464 -2.10160648 33.26559568 -4 32 C-4.34057617 29.11083984 -4.34057617 29.11083984 -4.29296875 25.4609375 C-4.28330078 24.15898437 -4.27363281 22.85703125 -4.26367188 21.515625 C-4.23860388 20.13541077 -4.21320902 18.75520244 -4.1875 17.375 C-4.17245517 15.98699337 -4.15876641 14.59897133 -4.14648438 13.2109375 C-4.1110257 9.80690491 -4.06160298 6.40364378 -4 3 C-4.66 3 -5.32 3 -6 3 C-6 2.34 -6 1.68 -6 1 C-3.92446352 0.4465236 -2.15634036 0 0 0 Z " fill="#D67528" transform="translate(6,1)"/>
</svg>
